<svg width="72" height="72" viewBox="0 0 72 72" fill="none" xmlns="http://www.w3.org/2000/svg">
<circle cx="36" cy="36" r="35" stroke="#96C361" stroke-width="2"/>
<path d="M18.89 26H20.84V47H16.55V30.98L11.84 32.96V28.73L18.89 26ZM37.1096 36.02C39.2096 36.89 40.3496 38.78 40.3496 41.09C40.3496 44.99 36.8996 47.36 32.2796 47.36C27.6896 47.36 24.2396 44.99 24.2396 41.09C24.2396 38.78 25.3796 36.89 27.4796 36.02C25.8296 35.24 24.8396 33.59 24.8396 31.61C24.8396 28.1 28.0796 25.64 32.2796 25.64C36.5096 25.64 39.7496 28.1 39.7496 31.61C39.7496 33.59 38.7296 35.24 37.1096 36.02ZM32.2796 29.66C30.1196 29.66 29.1296 30.71 29.1296 32.15C29.1296 33.47 29.9396 34.37 32.2796 34.37C34.6196 34.37 35.4596 33.47 35.4596 32.15C35.4596 30.71 34.4396 29.66 32.2796 29.66ZM32.2796 43.34C34.6796 43.34 36.0296 42.41 36.0296 40.7C36.0296 38.9 34.7096 38.09 32.2796 38.09C29.8796 38.09 28.5596 38.9 28.5596 40.7C28.5596 42.41 29.9096 43.34 32.2796 43.34ZM53.438 30.65V36.08H58.808V40.16H53.438V45.59H49.148V40.16H43.778V36.08H49.148V30.65H53.438Z" fill="#3D3D3D"/>
</svg>
