<svg width="370" height="425" viewBox="0 0 370 425" fill="none" xmlns="http://www.w3.org/2000/svg">
<g clip-path="url(#clip0_729_5918)">
<path d="M205.234 265.987C208.778 265.529 216.934 264.881 216.797 265.987C216.959 264.866 214.448 263.869 219.688 263.096C219.588 263.869 225.39 263.222 228.359 263.096C225.864 262.606 223.584 263.364 216.797 263.096C210.559 264.675 196.658 261.88 190.781 263.096C194.973 263.838 199.995 266.145 205.234 265.987Z" fill="white"/>
<path d="M234.141 268.877H228.359H222.578C223.745 268.711 226.052 268.967 228.359 268.877C229.874 268.69 232.627 268.681 234.141 268.877Z" fill="white"/>
<path d="M265.938 263.095C265.102 263.836 271.68 262.654 271.719 263.095C271.449 262.568 274.699 260.805 277.5 260.204C280.369 259.581 280.52 258.214 283.281 257.312H286.172C284.99 257.527 282.241 256.796 280.391 257.312C278.541 257.828 276.922 259.645 274.609 260.204C272.297 260.763 271.398 262.643 268.828 263.095H263.047H260.156C262.392 262.848 263.792 263.449 265.938 263.095Z" fill="#EFA142"/>
<path d="M277.5 263.095C278.574 262.356 279.331 260.98 280.391 260.204C277.642 261.793 271.244 264.721 277.5 263.095Z" fill="white"/>
<path d="M268.828 260.204C263.209 261.88 271.557 258.22 265.938 260.204C267.814 259.385 270.723 260.063 268.828 260.204Z" fill="white"/>
<path d="M300.625 248.64C299.495 249.498 298.914 250.745 297.734 251.531C296.555 252.317 296.075 253.753 294.844 254.422C292.358 255.877 288.695 256.134 286.172 257.313C287.241 256.906 287.994 257.75 289.062 257.313L291.953 254.422H294.844L297.734 251.531C299.064 250.512 299.356 249.76 300.625 248.64Z" fill="#EFA142"/>
<path d="M300.625 248.639C298.703 249.802 295.063 250.384 297.734 248.639C300.191 247.635 304.319 247.369 306.406 245.748C308.366 244.332 309.762 241.483 312.188 239.966L309.297 242.857L306.406 245.748C306.947 245.875 310.187 241.773 312.188 239.966C314.188 238.158 317.596 236.455 317.969 237.075C318.937 236.481 320.29 234.167 317.969 237.075C317 237.669 314.951 237.711 317.969 234.184C312.766 239.724 307.424 245.129 300.625 248.639C301.469 248.307 302.726 246.19 303.516 245.748C304.29 245.331 305.091 246.507 306.406 245.748C304.238 247.265 300.547 247.021 297.734 248.639C296.33 249.448 296.263 250.734 294.844 251.531C293.424 252.327 290.482 253.764 289.062 254.422C292.635 253.941 295.789 250.788 300.625 248.639Z" fill="#EFA142"/>
<path d="M320.859 234.183C322.86 231.726 325.01 228.287 326.641 225.51C328.205 222.783 329.612 220.632 329.531 219.728C328.338 221.362 327.543 223.656 326.641 225.51C326.077 226.821 324.337 227.129 323.75 228.401C323.221 229.083 324.62 230.27 323.75 231.292C322.88 232.314 320.365 232.38 320.859 231.292C321.542 230.728 319.015 235.914 320.859 234.183Z" fill="#EFA142"/>
<path d="M335.312 216.837C335.547 215.286 335.13 212.606 335.312 211.055V213.946C335.252 214.468 334.442 217.091 332.422 222.619C332.951 221.629 332.104 220.934 332.422 219.728C332.682 218.684 334.795 218.318 335.312 216.837Z" fill="#EFA142"/>
<path d="M329.531 211.054C331.028 208.147 331.916 205.707 332.422 202.381C331.67 205.444 330.656 208.146 329.531 211.054C328.421 213.853 326.863 215.984 326.641 216.837V219.728C326.273 220.58 324.16 221.639 323.75 222.619C323.339 223.598 324.137 224.594 323.75 225.51C325.091 222.838 328.245 219.737 329.531 216.837C330.817 213.936 330.517 210.558 329.531 211.054Z" fill="#EFA142"/>
<path d="M326.641 216.836C327.719 215.921 328.615 214.906 329.531 213.945C328.615 214.906 327.719 215.885 326.641 216.836Z" fill="#EFA142"/>
<path d="M341.094 196.599C340.351 199.546 339.382 202.444 338.203 205.272C338.55 204.593 337.885 203.099 338.203 202.381C338.897 200.187 340.602 198.845 341.094 196.599Z" fill="#EFA142"/>
<path d="M335.313 205.272C337.079 199.444 333.737 207.893 335.313 202.381C335.457 201.611 336.009 203.046 335.313 205.272C334.616 207.498 332.364 210.704 332.422 211.054C332.884 209.977 332.101 209.312 332.422 208.163C332.827 206.893 334.925 205.447 335.313 205.272Z" fill="#EFA142"/>
<path d="M341.094 193.708C341.094 192.194 341.183 189.378 341.094 187.925C341.004 186.472 341.235 186.472 341.094 185.034C341.235 186.548 341.056 186.487 341.094 187.925C341.131 189.363 341.094 192.239 341.094 193.708Z" fill="#EFA142"/>
<path d="M341.094 173.469H338.203C337.414 169.712 337.073 165.319 335.312 161.905C333.587 158.412 330.791 155.518 329.531 153.231C329.719 153.872 329.771 153.156 329.531 153.231C329.291 153.307 330.696 153.609 332.422 156.122C333.217 156.713 332.321 159.554 332.422 159.014C333.682 161.326 334.671 160.296 335.312 161.905C336.694 164.134 337.417 168.077 338.203 170.578C339.036 173.192 340.576 174.614 341.094 176.36C340.703 174.626 338.429 174.751 338.203 173.469C339.148 175.924 341.206 176.625 341.094 179.252C341.05 180.018 341.05 181.377 341.094 182.143C341.172 182.899 340.805 184.331 341.094 185.034C340.993 184.255 341.117 182.929 341.094 182.143C341.094 181.263 341.169 180.244 341.094 179.252C341.053 177.305 341.582 175.355 341.094 173.469Z" fill="#EFA142"/>
<path d="M341.094 176.361V179.252V182.143C340.588 180.821 338.397 177.737 338.203 176.361C338.079 175.18 338.859 174.526 338.203 173.47C338.186 174.393 337.992 175.454 338.203 176.361C338.29 177.558 338.539 177.306 338.203 176.361C338.643 176.457 337.969 178.582 338.203 179.252C338.403 179.979 340.99 181.403 341.094 182.143C340.232 183.603 341.285 183.567 341.094 182.143C341.27 183.314 341.212 183.858 341.094 185.034C341.062 185.467 341.305 187.527 341.094 187.926C340.863 188.344 341.172 187.47 341.094 187.926C340.978 188.632 341.299 188.938 341.094 190.817C341.299 191.547 340.903 192.954 341.094 193.708C341.605 189.471 341.079 187.536 341.094 185.034C341.16 181.964 342.03 179.334 341.094 176.361Z" fill="#EFA142"/>
<path d="M326.641 153.231C326.143 152.41 327.225 151.095 326.641 150.34C326.872 150.845 326.447 152.726 326.641 153.231C325.591 152.114 324.921 151.339 323.75 150.34L320.859 147.449C319.816 146.587 318.986 145.309 317.969 144.557C316.951 143.807 316.122 145.099 315.078 144.557C311.294 142.375 305.007 139.305 300.625 138.775C295.373 138.468 291.245 138.664 286.172 138.775C283.597 138.861 280.075 138.492 277.5 138.775C274.925 139.058 274.293 138.578 271.719 138.775C269.144 138.972 269.801 141.752 271.719 141.666C273.637 141.58 277.204 138.664 277.5 138.775C276.136 139.859 271.21 141.039 268.828 141.666C268.455 141.999 271.211 142.06 274.609 141.666C276.309 141.494 278.692 141.814 280.391 141.666C282.09 141.519 282.148 141.617 283.281 141.666C287.143 141.309 287.878 139.231 289.062 138.775C290.048 138.998 290.941 138.711 291.953 138.775C292.959 138.859 293.881 141.382 294.844 141.666C298.252 141.635 303.117 140.818 306.406 141.666C309.34 142.454 311.384 143.289 315.078 144.557C316.044 145.333 313.514 145.099 312.187 144.557C310.861 144.016 311.054 144.065 312.187 144.557H315.078C318.492 145.809 321.134 147.896 323.75 150.34C325.993 152.415 328.089 156.367 329.531 159.013C328.089 156.625 327.253 153.574 329.531 156.122C329.893 157.009 329.236 158.127 329.531 159.013C331.141 160.893 334.026 162.701 335.312 164.796C333.885 162.333 333.734 161.106 332.422 159.013C331.11 156.92 327.49 153.231 326.641 153.231Z" fill="#EFA142"/>
<path d="M332.422 161.905C333.648 165.598 335.145 165.049 335.313 164.796C335.102 164.327 335.48 164.543 335.313 164.796C335.755 165.961 335.076 166.414 335.313 167.687C334.578 164.661 333.61 161.753 332.422 159.014C332.474 159.495 332.387 161.375 332.422 161.905Z" fill="#EFA142"/>
<path d="M297.734 138.776C296.376 138.469 296.24 138.993 294.844 138.776C297.09 139.657 302.414 138.495 297.734 138.776Z" fill="white"/>
<path d="M280.391 138.775H283.281C282.315 139.095 281.348 138.418 280.391 138.775C280.83 138.878 279.96 138.775 280.391 138.775Z" fill="white"/>
<path d="M265.937 138.775C264.284 138.456 264.915 138.303 265.937 138.775C267.552 139.366 270.005 138.894 271.718 138.775C270.377 138.841 270.107 139.187 268.828 138.775C268.096 138.43 265.521 138.775 265.937 138.775Z" fill="#EFA142"/>
<path d="M254.375 121.429C255.342 123.431 256.487 125.232 254.375 121.429C252.649 118.836 253.408 119.427 254.375 121.429C253.587 120.579 251.177 115.22 254.375 121.429Z" fill="white"/>
<path d="M245.703 98.2998C245.796 99.262 245.753 100.227 245.703 101.191C245.517 100.233 245.559 99.2617 245.703 98.2998Z" fill="#EFA142"/>
<path d="M312.188 138.776C313.17 139.031 314.182 138.443 315.078 138.776C314.11 138.443 313.199 139.044 312.188 138.776Z" fill="#EFA142"/>
<path d="M254.421 266.521C252.94 266.815 251.791 266.956 250.858 267.058C252.033 266.905 253.22 266.739 254.382 266.521H254.421Z" fill="#EFA142"/>
<path d="M250.093 265.536C252.396 264.997 254.772 264.837 257.127 265.063C258.438 265.15 259.754 265.12 261.06 264.973C263.092 264.772 265.101 264.378 267.06 263.796C263.051 264.884 258.774 265.767 254.382 266.522C248.408 266.227 258.8 265.357 250.093 265.536Z" fill="#EFA142"/>
<path d="M323.311 227.921L323.516 227.627C323.86 227.129 323.695 227.397 323.311 227.921Z" fill="#EFA142"/>
<path d="M33.5645 330.474H33.7431C33.9475 332.356 34.2793 334.209 34.5987 336.08C34.2284 334.223 33.8327 332.367 33.5645 330.474Z" fill="white"/>
<path d="M33.7431 329.655C33.3344 326.481 33.1558 323.254 33.0537 320.12C33.6301 329.548 35.4943 338.855 38.5945 347.777C41.7204 356.719 45.7953 365.3 50.7487 373.372L49.6635 371.875C49.3117 371.392 48.9958 370.883 48.7186 370.351C48.0803 369.29 47.1993 367.729 46.1653 365.809C43.6695 361.079 41.4692 356.196 39.5776 351.194C37.7082 346.248 36.1935 341.176 35.0454 336.016C34.1131 331.881 33.7686 329.23 33.7431 329.655Z" fill="white"/>
<path d="M33.0918 326.993C31.7257 321.566 32.3896 317.828 32.0959 311.06C32.2492 313.338 32.3385 315.258 32.5556 317.163C32.6449 318.111 32.7088 319.057 32.7726 320.042C32.8365 321.028 32.9258 322.026 32.9513 323.116C32.9258 324.408 33.0409 325.686 33.0918 326.993Z" fill="white"/>
<path d="M29.6575 299.258C29.7214 298.772 29.7725 298.286 29.8746 297.801C29.8746 298.388 29.7852 298.914 29.7598 299.322L29.6575 299.258Z" fill="#EFA142"/>
<path d="M29.7602 299.321L30.0282 299.451C29.7602 300.46 29.7218 300.154 29.7602 299.321Z" fill="#EFA142"/>
<path d="M29.8745 297.8C30.0534 296.52 30.2702 294.932 30.3214 294.1L30.0023 295.444C30.2555 293.415 30.6827 291.411 31.2791 289.457C30.296 293.065 30.4746 293.166 30.8449 293.371C31.3938 291.44 31.8407 289.532 32.5301 287.6C32.8365 288.303 32.3769 289.506 31.8023 291.235C31.5216 292.105 31.1129 293.076 30.781 294.178C30.4492 295.279 30.1555 296.494 29.8745 297.8Z" fill="#EFA142"/>
<path d="M40.2287 271.769C40.0755 272.101 39.7309 272.652 39.3861 273.266L38.416 275.186C37.8541 276.274 37.6115 276.824 38.6201 275.301C38.2498 276.222 37.6115 277.195 37.1138 278.334C37.5352 277.58 37.8 276.749 37.8925 275.89C37.989 275.494 38.144 275.114 38.3521 274.763C38.8903 273.713 39.5182 272.711 40.2287 271.769Z" fill="#EFA142"/>
<path d="M37.1136 278.296C36.9222 278.744 36.7051 279.23 36.386 279.883C36.6158 279.345 36.871 278.808 37.1136 278.296Z" fill="#EFA142"/>
<path d="M48.272 262.387L49.8933 260.736C49.4337 261.21 49.0126 261.658 48.6168 262.093L48.272 262.387Z" fill="#EFA142"/>
<path d="M92.4841 423.939C87.122 418.408 82.0791 413.097 74.7253 404.741C74.7253 405.059 71.7633 401.399 71.2016 401.041C75.0317 405.369 67.7161 397.317 60.9879 388.45C54.2597 379.58 48.4125 369.764 50.6978 373.757C51.221 374.497 51.7318 375.266 52.2808 375.995L50.455 373.783C49.038 371.401 47.506 368.509 46.1526 365.795C44.7992 363.083 43.5993 360.524 42.6928 358.873C42.6162 358.627 43.778 361.189 45.7696 365.028C47.7613 368.868 50.7106 373.922 53.9151 378.785C58.0423 384.989 62.5046 390.962 67.2819 396.678C60.5144 388.95 54.4476 380.632 49.1528 371.823C46.9698 368.203 44.9654 364.453 43.1652 360.83C41.3652 357.208 39.884 353.701 38.7096 350.593C36.3476 344.397 35.1859 339.904 35.007 339.497L35.1474 338.664C34.4965 336.629 34.0623 334.735 33.5645 332.968C33.0665 331.202 32.7219 329.513 32.3898 327.848C31.6833 324.526 31.1931 321.164 30.9216 317.778L31.3301 316.127C31.3038 318.14 31.4318 320.149 31.7131 322.141C31.9047 323.829 32.2493 325.521 32.6835 328.184C32.3771 325.865 32.1218 324.023 32.0452 322.436C31.9686 320.849 31.8408 319.556 31.8408 318.316C31.8408 315.833 31.8408 313.629 31.9302 310.073C31.5983 310.175 31.4324 311.71 31.4067 312.083C31.3812 312.453 31.4067 312.172 31.4067 311.455C31.4067 310.738 31.4067 309.42 31.4706 307.168C32.0195 304.609 32.0707 310.597 32.8494 302.637C33.6666 297.876 33.9984 295.97 34.1262 294.166C34.3904 291.619 34.9604 289.113 35.8241 286.704C35.1347 288.495 34.3941 290.275 33.8452 292.116C34.1901 290.581 34.8922 288.419 35.6198 286.294C36.2939 284.407 37.1492 282.589 38.1733 280.868C37.9817 281.264 37.7392 281.751 37.4966 282.288L36.82 284.08C36.5901 284.707 36.3603 285.36 36.1178 286.025C35.8753 286.691 35.7348 287.382 35.5562 288.022C34.8156 290.581 34.5731 292.807 34.9303 292.77C35.5229 290.353 36.3043 287.987 37.2668 285.692C37.8412 284.413 38.3265 283.133 38.9009 282.02C39.4756 280.906 39.9225 279.959 40.267 279.268L39.8967 281.187C40.3384 280.553 40.731 279.886 41.0715 279.191C41.4288 278.564 41.7609 277.911 42.08 277.323C42.3991 276.734 42.7567 276.043 43.1779 275.301C43.7051 274.521 44.2717 273.769 44.8758 273.048C46.8675 269.529 42.8842 274.648 43.9566 272.651C44.1098 272.511 44.4928 271.986 45.0548 271.282C45.6164 270.578 46.3313 269.708 47.123 268.722C47.9145 267.737 48.7571 266.879 49.4722 265.996C50.1871 265.113 50.838 264.358 51.2722 263.821C50.1359 264.051 48.6423 265.907 46.9571 268.057C46.1653 269.183 45.2846 270.36 44.4035 271.512C43.6424 272.656 42.7885 273.735 41.8502 274.737L44.0078 271.64C44.7099 270.604 45.5525 269.669 46.3313 268.671C47.3401 266.444 45.4505 268.812 43.5609 271.538C41.6716 274.264 40.0245 277.502 40.2416 276.196C40.4728 275.505 40.75 274.829 41.0715 274.174C41.4267 273.528 41.8147 272.9 42.2332 272.293C42.6544 271.691 43.0886 271.09 43.51 270.501C43.9312 269.913 44.4928 269.388 44.9782 268.837L46.4209 267.199C46.9186 266.662 47.4167 266.15 47.8633 265.6C48.3177 265.068 48.7441 264.512 49.1401 263.936C49.5485 263.374 49.9237 262.788 50.2637 262.182C49.9188 262.477 49.5104 262.861 48.9869 263.309C48.4634 263.757 48.0422 264.307 47.5187 264.87L45.9613 266.662L44.4547 268.543L43.0886 270.233L42.1312 271.615C41.5692 272.344 41.2628 272.677 41.3779 272.306C41.9852 271.563 42.5477 270.786 43.0631 269.976C43.5993 269.221 44.0971 268.453 44.6079 267.622L45.3993 266.342C45.7057 265.92 46.0121 265.471 46.3443 265.062C47.0594 264.024 47.8399 263.032 48.6805 262.093L51.2341 259.853C52.1148 259.137 53.034 258.471 53.9278 257.78C55.8171 255.591 54.0937 257.115 52.2553 258.445C57.1003 254.363 62.4046 250.862 68.0607 248.015C71.4095 246.378 74.9175 245.091 78.5296 244.175L81.2873 243.613L82.6661 243.344L84.0068 243.19L86.7517 242.921C87.6582 242.921 88.5645 242.921 89.4582 242.921C91.5649 242.729 92.6755 242.755 93.2883 242.678C93.9011 242.602 93.8372 242.537 93.684 242.448C93.5308 242.358 92.4841 242.026 94.4373 241.834C96.6845 242.358 99.6847 242.64 102.672 243.113C105.423 243.488 108.151 244.018 110.843 244.7C112.12 245.11 114.673 245.02 113.575 244.342C109.792 243.398 105.955 242.688 102.085 242.218C102.723 241.898 101.14 240.81 96.7993 240.541C98.2035 241.475 94.0416 240.682 89.2157 240.797C86.913 240.799 84.615 241 82.347 241.399C80.4193 241.859 79.0659 242.345 78.9638 242.806V242.013C74.005 243.454 69.2447 245.509 64.7925 248.13L65.2264 247.989C64.578 248.275 63.9583 248.622 63.3753 249.026L61.3582 250.306L58.9578 252.046C55.2587 254.805 51.7682 257.833 48.5146 261.108C48.8976 260.647 49.7913 259.648 50.8638 258.548C51.9362 257.447 53.2257 256.321 54.2724 255.412C56.4172 253.659 57.4897 252.635 53.9787 254.913C57.1012 252.097 60.5676 249.688 64.2945 247.746C69.2178 245.164 74.4232 243.162 79.8064 241.782H77.4445C78.9384 241.334 80.4959 240.899 82.1299 240.503C83.7643 240.106 85.4877 239.901 87.2368 239.735C90.8544 239.422 94.4943 239.473 98.1015 239.888C105.009 240.88 111.812 242.499 118.427 244.726C117.15 244.572 115.873 244.432 114.597 244.316C118.874 245.865 124.031 248.373 128.104 249.116C123.074 247.388 125.806 247.836 126.827 247.836C130.287 248.821 134.398 250.306 138.751 251.675C143.243 253.145 147.823 254.329 152.463 255.22C152.463 255.22 151.978 255.284 152.348 255.489C155.604 256.065 158.898 256.487 162.192 256.897C165.234 257.47 168.223 258.296 171.129 259.367C172.891 259.495 177.193 259.981 175.61 259.367C174.691 259.226 173.771 259.072 173.159 259.034C178.265 258.702 176.644 259.725 183.027 259.751C178.061 260.071 184.457 261.031 183.819 261.683C191.3 261.939 184.611 260.404 185.581 260.083C194.518 261.184 195.731 261.888 204.872 262.413C205.421 261.965 198.386 261.837 197.658 261.235C199.691 261.486 201.743 261.542 203.787 261.402L198.195 260.775C207.843 261.88 217.568 262.167 227.265 261.632L226.448 261.389C228.606 261.389 230.751 261.274 232.908 261.21L230.623 262.208C234.108 261.888 237.887 262.413 239.7 261.594H238.423C239.866 261.427 241.309 261.184 242.739 260.967C241.283 261.389 239.815 261.837 238.334 262.246C243.926 262.246 251.382 259.687 260.038 258.253C260.574 258.471 259.898 258.778 258.57 259.162C257.242 259.546 255.238 259.866 253.157 260.275C248.956 261.018 244.347 261.683 243.824 262.503C245.632 262.506 247.438 262.416 249.237 262.234C250.749 262.159 252.246 261.897 253.693 261.453C253.155 261.248 252.57 261.204 252.008 261.325C251.152 261.325 250.08 261.491 249.007 261.607C249.978 261.389 251.012 261.197 252.084 261.031C253.157 260.864 254.255 260.621 255.391 260.442C257.65 260.122 259.974 259.7 262.208 259.303C266.664 258.471 270.711 257.422 272.882 256.065C270.954 256.423 269.051 256.795 267.098 257.038C267.928 256.82 268.719 256.654 269.473 256.5C270.226 256.347 270.954 256.167 271.63 256.039C273.009 255.771 274.273 255.604 275.371 255.425C277.058 255.264 278.689 254.731 280.146 253.864L275.524 257.025C277.133 256.308 278.857 255.579 280.631 254.888L285.981 252.571C287.755 251.765 289.467 250.869 291.086 250.012C292.708 249.154 294.202 248.194 295.569 247.349C295.416 246.914 293.384 247.989 291.407 249.128C289.427 250.267 287.41 251.24 287.577 251.074L290.129 249.218C294.714 247.286 295.364 246.978 296.309 246.658C297 246.403 297.674 246.104 298.327 245.762C298.862 245.507 299.527 245.174 300.368 244.688C301.212 244.201 302.258 243.613 303.51 242.794L303.267 242.243C304.455 241.69 305.571 240.989 306.586 240.157C307.748 239.197 308.947 238.148 309.907 237.213C311.846 235.383 312.994 234.155 312.063 236.126C311.196 236.804 310.262 237.405 309.369 238.02L310.046 238.378C313.48 235.227 316.651 231.803 319.533 228.14C319.099 229.547 323.195 224.159 322.608 225.99L323.886 223.724L325.164 221.433C326.222 220.717 325.164 222.88 323.733 225.273C322.302 227.666 320.437 230.213 320.541 230.673C320.77 230.75 321.293 230.315 321.816 229.727C322.339 229.138 322.903 228.37 323.259 227.884C321.854 230.156 320.036 232.144 317.897 233.745C316.021 235.242 314.066 236.573 311.682 238.634C311.028 239.479 310.404 240.336 309.702 241.194L309.268 240.4C307.828 241.734 306.516 243.199 305.348 244.777C302.371 246.274 299.475 247.923 296.668 249.717C293.161 251.957 289.433 253.831 285.546 255.31C287.347 254.491 287.908 254.03 287.781 254.03C287.128 254.118 286.487 254.272 285.866 254.491C283.861 255.079 281.142 255.988 281.729 255.63C279.686 256.295 276.303 257.959 272.792 259.137L270.239 260.02C269.396 260.263 268.566 260.48 267.788 260.659C266.539 260.998 265.25 261.161 263.957 261.146C261.404 261.235 269 259.392 263.076 260.442C259.246 261.286 256.693 262.246 259.246 262.208C250.68 264.064 240.224 264.768 230.61 265.113L232.883 264.422C227.833 264.284 222.784 264.713 217.83 265.702C217 265.446 216.554 265.625 217.473 265.267C209.813 264.153 207.566 266.393 194.85 265.523C195.514 266.406 201.233 266.803 205.28 266.521L204.195 267.442C209.698 267.685 215.558 267.775 221.162 267.66C226.767 267.545 232.078 267.199 236.483 266.623C235.13 266.956 233.776 267.276 232.423 267.545C234.598 267.979 236.845 267.877 238.972 267.25C240.986 266.652 243.112 266.538 245.177 266.918C250.488 266.086 241.27 266.777 245.254 265.996C249.084 265.907 244.45 267.814 250.807 267.135C238.346 268.783 225.773 269.433 213.209 269.081C200.263 268.837 187.202 268.159 174.703 266.815C174.206 266.931 175.521 267.148 176.823 267.353C171.457 267.145 166.119 266.486 160.864 265.382C152.019 263.722 143.316 261.377 134.832 258.369C125.895 255.156 117.507 251.637 110.843 249.794C104.179 247.951 99.493 247.49 98.893 248.002C97.7312 247.529 101.702 247.644 96.544 247.055C96.0587 247.183 94.731 247.273 95.9055 247.695C88.5858 246.523 81.0858 247.358 74.2018 250.114C66.6674 253.103 59.718 257.401 53.6723 262.81C54.1449 262.81 51.7957 265.369 51.9235 265.6C50.7262 266.599 49.6078 267.69 48.5784 268.863C47.5315 270.207 46.3313 271.615 45.3612 273.15C44.8631 273.906 44.3781 274.673 43.893 275.416C43.4077 276.158 43.012 276.939 42.6162 277.655C41.7352 279.076 41.0458 280.445 40.3948 281.495L41.4418 280.215C38.9758 284.961 37.0651 289.977 35.7475 295.164C35.7475 295.649 36.3349 293.55 36.7306 292.336C35.8753 295.713 35.4538 296.418 35.0708 296.687C34.7263 299.067 34.5858 301.461 34.458 303.828C32.4025 314.066 33.1815 326.223 36.1944 338.063C39.4175 350.026 44.2176 361.504 50.468 372.196C52.5999 375.176 54.2981 377.813 57.7961 382.907C57.2344 382.075 56.7109 381.193 56.1747 380.346C59.8389 385.466 56.2513 380.73 59.3665 385.07C61.588 387.935 60.2603 385.772 57.4003 381.794C55.8044 379.158 56.9026 380.704 58.1664 382.497C63.4675 390.309 69.1958 397.82 75.3251 404.996C81.0959 411.909 86.9177 418.203 92.4841 423.939Z" fill="#EFA142"/>
<path d="M279.597 39.5855C279.868 38.6884 280.192 37.808 280.568 36.949C281.155 35.2982 281.615 34.0183 280.657 36.4373C276.962 45.9362 272.039 54.9075 266.013 63.1212C262.668 67.7286 258.787 71.9774 255.391 76.2266C252.098 80.0964 249.353 84.403 247.233 89.0246C246.481 90.6933 245.916 92.4402 245.548 94.2333C245.197 95.9165 245.034 97.6335 245.063 99.3526C245.139 99.4423 245.216 99.4423 245.28 99.2245C245.436 102.274 246.007 105.288 246.978 108.183C247.988 111.13 249.151 114.022 250.463 116.848C251.216 118.128 252.033 118.934 250.68 116.451C252.57 119.906 254.166 123.003 255.48 125.704C256.5 128.023 257.855 130.18 259.502 132.103C258.468 130.593 259.106 131.258 259.694 131.834C260.281 132.41 260.791 132.896 259.515 131.181C260.728 132.704 261.647 133.741 262.375 134.471C263.102 135.2 263.651 135.827 264.175 136.352C264.735 136.923 265.37 137.414 266.064 137.811C267.105 138.386 268.261 138.723 269.448 138.796C269.831 138.681 270.201 138.591 268.975 138.476C272.282 139.206 277.823 137.772 282.649 137.196C287.474 136.62 291.586 136.557 291.93 137.196C292.927 137.03 293.922 136.838 294.919 136.723C295.96 136.878 296.992 137.091 298.006 137.363C298.876 137.593 300.012 137.721 302.666 138.195C306.178 138.54 302.666 137.683 303.944 137.708C304.692 138.022 305.47 138.257 306.268 138.412C307.404 138.694 308.82 139.091 310.288 139.539C313.075 140.366 315.72 141.604 318.139 143.211C318.139 143.416 317.694 143.211 317.018 142.892C316.341 142.572 315.434 141.906 314.324 141.356C312.095 140.08 309.632 139.266 307.086 138.963C306.918 139.078 307.505 139.27 308.36 139.5C303.241 138.206 297.998 137.464 292.722 137.286C287.878 137.089 283.027 137.242 278.206 137.747C273.584 138.259 269.179 138.886 265.618 137.273C262.055 135.661 259.234 132.397 256.783 128.775C255.559 126.102 253.983 123.606 252.097 121.353C252.799 122.824 254.166 125.704 255.557 128.071C256.949 130.439 258.481 132.218 258.889 132.013C259.836 133.554 260.973 134.968 262.273 136.224C263.945 137.35 263.549 138.054 264.252 138.643C262.439 137.76 260.689 136.493 259.809 135.993C259.374 135.725 259.132 135.686 259.247 135.993C259.66 136.732 260.221 137.377 260.894 137.888C259.677 137.098 258.676 136.016 257.983 134.739C257.894 134.381 258.391 134.586 258.889 134.739C259.387 134.893 259.949 135.174 259.936 134.944C259.923 134.714 259.336 134.099 257.881 132.308C257.447 132.077 257 131.847 256.604 131.591C257.268 132.205 256.451 130.849 255.391 128.942C254.331 127.035 253.017 124.59 252.199 123.31L252.697 124.475C249.799 118.972 246.607 112.957 244.897 106.11C244.007 102.644 243.735 99.0482 244.092 95.4874C244.292 93.6738 244.677 91.8856 245.241 90.1507C245.825 88.3879 246.55 86.6758 247.412 85.0316C250.91 78.4533 256.157 72.9373 260.932 67.3189C265.571 61.9153 269.708 56.098 273.29 49.9393C275.714 46.1522 277.778 42.1459 279.457 37.9731C281.41 33.353 283.019 28.656 283.964 25.5973C284.908 22.5385 282.687 29.731 284.334 24.1383C285.138 21.3355 285.176 21.0795 285.151 21.2075C285.368 20.35 285.572 19.4926 285.789 18.6479C286.006 17.8033 285.789 18.3408 285.125 21.6299C283.733 27.7452 281.885 33.7474 279.597 39.5855Z" fill="#EFA142"/>
<path d="M254.356 292.77C257.65 291.978 264.825 290.544 264.838 291.489C264.838 291.029 264.838 290.798 265.438 290.506C266.038 290.211 267.251 289.928 269.613 289.058C269.613 289.673 273.979 288.598 276.737 287.971C275.243 288.036 273.754 288.198 272.281 288.457C270.392 288.739 268.043 289.263 264.851 289.647C259.259 292.09 246.862 291.31 241.449 293.027C245.458 293.013 249.467 293.741 254.356 292.77Z" fill="white"/>
<path d="M281.461 291.9L282.24 291.324C280.567 291.836 278.92 292.449 277.235 292.885L272.128 294.166C273.137 293.808 275.371 293.18 277.388 292.692C278.706 292.252 280.075 291.986 281.461 291.9Z" fill="white"/>
<path d="M312.792 279.486C312.268 280.561 317.145 278.423 317.336 278.987C316.94 278.436 318.741 277.387 321.166 276.184C323.658 274.976 326.063 273.599 328.366 272.063C328.699 271.435 329.031 270.783 329.349 270.207C327.294 271.116 324.002 273.214 320.004 275.326L313.722 278.705C311.514 279.78 309.254 280.778 307.097 281.751L312.792 279.486Z" fill="#EFA142"/>
<path d="M320.68 276.145C321.461 275.48 322.238 274.866 322.967 274.098C320.912 275.544 315.792 278.308 320.68 276.145Z" fill="white"/>
<path d="M313.378 275.979C311.783 276.849 311.17 277.054 311.158 277.131C311.511 277.075 311.858 276.981 312.19 276.849C312.714 276.67 313.225 276.478 313.214 276.581C313.199 276.683 312.69 277.08 311.028 277.86C312.011 277.368 312.959 276.807 313.864 276.184C314.462 275.774 314.514 275.621 313.378 275.979Z" fill="white"/>
<path d="M339.92 260.813C336.078 264.365 332 267.653 327.716 270.655C328.673 270.143 329.606 269.58 330.537 269.017C331.468 268.454 332.413 267.903 333.321 267.302C335.604 265.216 337.839 263.066 339.92 260.813Z" fill="#EFA142"/>
<path d="M341.99 261.863C340.443 263.258 337.674 265.037 339.729 262.874C340.825 262.157 341.874 261.371 342.868 260.519C343.765 259.687 344.554 258.868 345.346 258.062C346.138 257.256 346.84 256.385 347.658 255.502C348.473 254.619 349.329 253.813 350.326 252.943C349.317 254.299 348.219 255.592 347.121 256.885C347.658 256.885 349.393 254.888 350.951 252.866C352.509 250.844 353.94 248.924 354.463 249.513C356.174 246.454 355.087 247.299 354.272 247.977C353.835 248.297 353.454 248.579 353.48 248.31C353.919 247.274 354.457 246.284 355.087 245.354C351.055 251.251 346.126 256.48 340.484 260.852C342.059 259.791 343.565 258.628 344.99 257.371C340.94 261.59 336.578 265.496 331.942 269.055C335.055 268.006 337.98 264.717 341.99 261.863Z" fill="#EFA142"/>
<path d="M358.753 242.755C360.452 240.218 361.932 237.538 363.169 234.744C364.317 232.005 365.034 229.624 364.739 228.754C363.12 231.425 362.005 234.37 361.447 237.444L359.328 240.631C358.585 241.68 357.972 242.23 358.331 241.181C358.969 240.631 357.105 244.573 358.753 242.755Z" fill="#EFA142"/>
<path d="M367.792 223.366C367.867 222.009 367.792 220.627 367.792 219.283L367.37 221.843L366.641 221.958C366.791 222.66 366.852 223.378 366.82 224.095C366.797 224.883 366.705 225.667 366.54 226.437C366.271 227.56 365.924 228.664 365.505 229.739C366.069 228.778 366.497 227.745 366.783 226.668C367.049 225.547 367.387 224.444 367.792 223.366Z" fill="#EFA142"/>
<path d="M363.577 220.908C364.184 219.509 364.615 218.038 364.855 216.532C365.083 214.906 365.225 213.27 365.277 211.63C364.982 214.6 364.482 217.547 363.782 220.448C363.117 223.225 362.429 225.567 362.302 226.348V225.874C362.302 225.874 361.981 227.154 361.536 228.882C361.088 230.609 360.426 232.721 359.825 234.59C360.909 231.902 362.455 228.191 363.438 225.337C363.823 224.186 364.103 223.004 364.279 221.804C364.268 220.985 364.089 220.601 363.577 220.908Z" fill="#EFA142"/>
<path d="M361.305 227.577C361.562 226.297 361.944 224.953 362.111 223.622C361.944 224.953 361.562 226.245 361.305 227.577Z" fill="#EFA142"/>
<path d="M370 206.639C369.85 209.412 369.526 212.173 369.029 214.906L369.566 212.923C369.72 211.886 369.772 210.837 369.847 209.787C369.925 208.738 369.988 207.688 370 206.639Z" fill="#EFA142"/>
<path d="M366.271 216.085C366.861 212.923 366.476 213.756 366.196 214.638C366.043 215.086 365.826 215.521 365.762 215.496C365.731 214.817 365.791 214.137 365.942 213.474C365.942 212.668 365.762 214.856 365.34 217.313C364.965 219.089 364.684 220.883 364.496 222.688C364.872 221.497 365.15 220.277 365.329 219.041C365.595 217.595 365.8 216.315 366.271 216.085Z" fill="#EFA142"/>
<path d="M367.511 184.179C367.231 183.795 366.973 183.398 366.681 183.014C365.742 179.504 364.514 176.08 363.005 172.776C361.484 169.422 359.978 166.376 359.175 164.009C359.238 165.289 356.85 162.191 359.519 167.336C360.195 167.989 361.14 169.896 361.305 169.384C362.288 171.675 361.689 171.393 362.25 172.955C362.837 173.98 363.369 175.035 363.846 176.116C364.369 177.28 364.817 178.548 365.288 179.763C365.762 180.979 366.132 182.208 366.502 183.321C366.872 184.435 367.19 185.446 367.537 186.239C367.19 185.182 366.907 184.105 366.693 183.014C367.705 185.294 368.289 187.741 368.416 190.232C368.326 191.721 368.685 193.202 369.451 194.481C368.647 191.998 368.722 187.429 367.511 184.179Z" fill="#EFA142"/>
<path d="M364.548 185.599C365.019 187.429 365.34 189.298 365.673 191.14C365.083 189.854 364.655 188.5 364.395 187.109C364.19 185.915 363.756 184.772 363.117 183.743C362.915 184.166 364.1 189.579 363.36 187.672C364.167 187.813 364.638 189.682 364.944 191.102C365.251 192.523 365.467 193.521 366.043 191.934C366.317 193.093 366.485 194.276 366.54 195.466C366.551 195.899 366.497 196.331 366.375 196.746C366.207 197.386 366.054 198.026 366.311 201.865L367.179 204.003C366.936 199.715 366.641 197.232 366.413 194.724C366.271 193.444 366.069 192.164 365.826 190.757C365.493 189.015 365.066 187.294 364.548 185.599Z" fill="#EFA142"/>
<path d="M356.339 165.366C356.047 164.483 355.674 163.612 355.319 162.806L355.547 164.431C352.255 159.031 349.725 154.641 347.288 150.866C345.181 147.345 342.542 144.176 339.461 141.472C335.567 138.503 331.928 135.559 328.06 132.82C324.14 129.965 319.955 127.496 315.561 125.449C311.005 123.772 319.634 127.701 319.94 128.239C318.307 128.405 315.931 125.679 313.558 125.397C313.124 125.551 315.344 126.805 318.09 128.341C320.703 129.777 323.224 131.38 325.635 133.14C328.725 135.073 328.814 134.855 329.951 135.188C330.543 135.928 331.211 136.605 331.942 137.21C332.645 137.84 333.281 138.539 333.844 139.296C336.457 141.145 338.848 143.293 340.967 145.695C342.935 147.807 344.797 150.008 347.352 152.657C348.41 154.807 343.649 148.472 345.181 150.405C346.048 151.454 346.968 152.453 347.797 153.527L347.606 153.131C350.003 155.658 352.107 158.448 353.876 161.45C355.417 164.007 356.729 166.697 357.796 169.487C357.391 168.558 357.059 167.599 356.799 166.62C356.799 166.159 357.079 166.364 357.961 167.772L358.547 170.523C359.9 172.494 361.178 174.525 362.378 176.615C361.025 174.209 360.004 171.496 358.981 169.295C357.961 167.093 357.157 165.507 356.339 165.366Z" fill="#EFA142"/>
<path d="M358.753 172.929C360.285 176.769 360.348 176.525 360.577 176.269C360.808 176.013 360.796 176.052 361.077 176.525C361.69 177.709 362.169 178.958 362.505 180.25C361.409 177.199 360.152 174.208 358.738 171.291L358.753 172.929Z" fill="#EFA142"/>
<path d="M335.772 139.974C334.801 138.938 333.755 137.991 332.734 136.979C334.009 139.053 339.781 142.483 335.772 139.974Z" fill="white"/>
<path d="M322.993 131.015L325.302 131.501L323.478 130.657L321.625 129.876L322.993 131.015Z" fill="white"/>
<path d="M310.621 123.72C307.594 122.607 310.875 124.629 314.272 126.165C311.271 124.667 309.843 123.592 310.621 123.72Z" fill="#EFA142"/>
<path d="M293.167 108.644C293.523 109.239 293.951 109.785 294.445 110.27C294.344 110.129 293.87 109.451 293.398 108.683C292.442 107.16 291.572 105.343 293.118 107.288C292.771 106.981 292.031 106.149 291.84 106.008C291.65 105.867 291.624 106.251 293.167 108.644Z" fill="white"/>
<path d="M287.883 87.3223C287.984 88.5999 287.984 89.8838 287.883 91.1617C287.793 90.3843 287.754 89.6019 287.768 88.8196C287.762 88.318 287.8 87.8169 287.883 87.3223Z" fill="#EFA142"/>
<path d="M346.56 147.589C347.155 148.202 347.719 148.847 348.245 149.521C347.684 148.856 347.161 148.216 346.56 147.589Z" fill="#EFA142"/>
<path d="M345.436 146.348C345.808 146.756 346.19 147.165 346.56 147.624L345.436 146.348Z" fill="#EFA142"/>
<path d="M301.723 285.923C300.446 286.485 299.411 286.893 298.593 287.2L301.683 285.923H301.723Z" fill="#EFA142"/>
<path d="M297.546 285.885C299.509 284.841 301.657 284.193 303.868 283.978C306.976 283.406 309.962 282.307 312.702 280.728C309.204 282.455 305.603 284.426 301.683 285.924C296.194 286.896 305.438 283.838 297.546 285.885Z" fill="#EFA142"/>
<path d="M358.562 237.584L358.701 237.29C358.958 236.792 358.842 237.047 358.562 237.584Z" fill="#EFA142"/>
<path d="M58.7279 329.144L58.8811 329.219C58.5426 330.945 58.338 332.697 58.2683 334.455C58.2807 332.674 58.4345 330.898 58.7279 329.144Z" fill="white"/>
<path d="M59.1746 328.476C59.8239 325.59 60.8049 322.792 62.0985 320.132C60.328 324.13 59.2819 328.412 59.0087 332.778C58.7812 337.117 59.3833 341.46 60.7833 345.574C62.2737 349.729 64.1546 353.73 66.4009 357.529L73.1164 369.047L72.1076 367.625C72.1076 367.804 70.8311 365.503 68.7117 361.97C66.078 357.705 63.7363 353.267 61.7025 348.685C59.7574 344.198 58.7454 339.358 58.728 334.466C58.7277 332.925 58.8301 331.387 59.0344 329.858C59.1492 328.808 59.2512 328.296 59.1746 328.476Z" fill="white"/>
<path d="M59.4558 325.943C59.7446 323.599 60.4675 321.329 61.5879 319.25C62.6222 317.189 63.8605 315.104 65.418 312.314C63.3882 316.076 62.3797 318.877 60.7838 322.552C60.3114 323.677 59.8261 324.79 59.4558 325.943Z" fill="white"/>
<path d="M69.5161 301.611C69.8482 301.267 70.1674 300.923 70.5119 300.616C70.1289 301.024 69.8225 301.432 69.58 301.726L69.5161 301.611Z" fill="#EFA142"/>
<path d="M69.5803 301.729L69.7208 301.984C68.9421 302.608 69.0826 302.354 69.5803 301.729Z" fill="#EFA142"/>
<path d="M70.5122 300.617L72.8869 297.992L71.8783 298.836C73.206 297.419 74.6683 296.133 76.2446 294.997C73.4358 297.136 73.5505 297.379 73.691 297.761C75.1465 296.532 76.6531 295.381 78.2105 294.306C77.9553 295.751 74.2145 297.084 70.5122 300.617Z" fill="#EFA142"/>
<path d="M93.0457 286.807C91.7689 287.37 86.662 289.674 89.8411 288.522C89.0239 288.983 88.0408 289.457 86.9941 289.943C88.6794 289.059 88.6536 288.842 88.9473 288.534C89.241 288.227 89.8793 287.792 93.0457 286.807Z" fill="#EFA142"/>
<path d="M86.9942 289.942L85.5515 290.735C86.0238 290.451 86.5219 290.185 86.9942 289.942Z" fill="#EFA142"/>
<path d="M104.396 284.463L106.515 284.118L104.817 284.437L104.396 284.463Z" fill="#EFA142"/>
<path d="M104 422.632C100.476 416.309 97.1949 410.281 92.0114 401.22C92.0114 401.515 89.9048 397.586 89.4582 397.164C92.1519 401.848 87.0835 393.018 81.798 383.995C76.5122 374.971 70.9969 365.757 73.1036 369.533L74.5463 371.684L72.7717 369.559C70.2182 365.04 66.9243 358.743 65.0093 355.8C64.5369 354.93 87.3003 393.963 86.4707 392.466C87.3642 394.258 79.6659 381.242 71.5461 367.665C67.5371 360.857 63.1454 354.034 60.8089 348.248C59.4214 344.854 58.4649 341.298 57.9619 337.667L58.2556 336.924C57.8434 333.446 57.9079 329.927 58.447 326.467C58.9384 323.278 59.844 320.167 61.141 317.215L62.2643 316.05C61.322 317.698 60.5641 319.444 60.0047 321.26C59.4619 323.098 59.0355 324.972 58.7279 326.865C59.3673 323.818 60.4062 320.869 61.8174 318.097C63.0043 315.81 64.3305 313.595 65.788 311.467C65.4434 311.366 64.5115 312.517 64.3583 312.748C64.2051 312.979 64.4219 312.337 66.9116 308.83C67.7669 307.949 67.4605 308.741 67.5244 308.987C67.5883 309.229 67.9328 308.897 70.3841 306.067C73.5505 302.817 74.8654 301.577 75.976 300.281C77.5369 298.497 79.3421 296.942 81.3381 295.661C79.7934 296.572 78.2613 297.543 76.7932 298.593C78.2732 297.387 79.8159 296.257 81.4147 295.216C82.9913 294.198 84.6632 293.343 86.4068 292.654C84.2837 293.739 82.27 295.022 80.3935 296.494C78.4145 298.044 76.9848 299.553 77.304 299.758C79.0785 298.257 80.9794 296.913 82.9852 295.739C85.2451 294.383 87.5686 293.282 88.8835 292.654C88.4112 293.051 87.9643 293.487 87.5174 293.935C90.5433 293.001 91.9094 291.556 95.8415 290.709C99.3398 289.289 93.4287 290.709 95.3692 289.827C95.7649 289.827 97.7439 289.252 99.9526 288.803C101.063 288.585 102.225 288.342 103.259 288.099C104.293 287.856 105.213 287.702 105.812 287.484C105.077 287.276 104.302 287.245 103.553 287.395C102.582 287.574 101.421 287.868 100.182 288.188C97.6288 288.841 94.935 289.801 92.5222 290.159C94.744 289.37 97.0122 288.722 99.314 288.214C101.357 287.19 98.5738 287.715 95.599 288.726C92.6243 289.737 89.5729 291.145 90.4921 290.287C92.8544 288.776 95.5241 287.814 98.3055 287.472C100.938 287.198 103.518 286.547 105.966 285.539C103.296 285.813 100.647 286.266 98.0375 286.896C95.1776 287.574 92.9307 288.342 93.5308 287.907C97.2458 286.998 99.6843 285.578 104.791 284.439L107.945 284.183L111.073 284.144C113.626 283.466 111.545 283.709 109.438 283.709C115.245 283.284 121.07 283.151 126.891 283.313C133.59 283.5 140.259 284.283 146.82 285.654C154.327 286.576 147.854 285.219 151.327 285.27C155.157 286.678 161.962 287.177 166.035 287.83C167.234 288.099 169.571 287.664 168.46 287.139L158.068 285.859C158.63 285.527 157.251 284.579 153.497 284.08C154.659 285.053 151.033 284.208 146.935 283.428C144.892 283.031 142.722 282.685 141.011 282.506C139.3 282.327 138.011 282.391 137.768 282.788L138.011 282.045C133.44 281.777 128.844 281.61 124.223 281.751L124.631 281.866C123.995 281.79 123.352 281.79 122.716 281.866C121.503 281.866 119.792 282.02 117.852 282.122C114.022 282.442 109.106 282.941 105.289 283.53C105.825 283.389 107.025 283.121 108.417 282.916L112.643 282.365C115.196 282.122 116.473 281.905 112.643 281.777C118.35 280.753 128.627 281.316 138.828 282.148L136.888 281.418C142.89 281.687 148.864 282.402 154.761 283.556C160.966 284.656 167.209 285.974 172.916 286.793L169.405 286.998C173.363 287.958 178.406 289.327 182.261 289.237C177.397 288.547 179.963 288.496 180.883 288.291C184.189 288.598 188.236 289.02 192.577 289.57C196.918 290.122 201.578 290.596 206.072 290.66C206.072 290.66 205.625 290.813 205.995 290.952C209.149 290.952 212.289 291.056 215.43 290.952C218.361 291.157 221.27 291.611 224.124 292.31C225.771 292.206 229.831 292.221 228.286 291.732C227.512 291.692 226.737 291.692 225.963 291.732C230.712 290.824 229.295 292.053 235.219 291.298C230.648 292.206 236.674 292.322 236.163 293.117C243.121 292.565 236.751 291.721 237.619 291.336C239.726 291.414 241.372 291.4 242.79 291.426L246.62 291.53C249.63 291.625 252.643 291.492 255.633 291.131C256.067 290.596 249.633 291.515 248.867 291.018C250.759 290.966 252.641 290.72 254.484 290.287L249.313 290.506C258.286 290.237 267.197 288.927 275.869 286.602L275.077 286.525C277.043 286.166 278.907 285.565 280.899 285.091L279.035 286.525C280.567 286.052 282.128 285.68 283.708 285.411C284.384 285.28 285.053 285.113 285.712 284.912C286.236 284.747 286.725 284.486 287.155 284.144L285.993 284.451L289.823 282.929L286.108 285.066C289.039 284.201 291.889 283.079 294.624 281.713C296.182 280.893 297.815 280.036 299.538 279.153C300.408 278.731 301.301 278.321 302.221 277.937C303.14 277.553 304.045 277.067 305.004 276.657C307.224 277.246 291.852 282.545 291.202 284.08C292.852 283.756 294.482 283.329 296.078 282.8C297.413 282.368 298.697 281.793 299.908 281.085C299.437 280.804 297.561 281.521 295.67 282.237C298.963 280.497 303.331 279.089 307.161 277.246L309.996 275.966C310.875 275.599 311.728 275.172 312.549 274.686C313.876 273.938 315.113 273.041 316.237 272.012L311.132 274.162C313.454 272.884 315.879 271.805 318.382 270.937C319.929 270.514 321.336 269.693 322.469 268.556C321.293 269.836 320.157 271.231 318.882 272.396C324.282 268.62 331.225 263.936 335.477 259.598C335.234 259.201 333.59 260.609 331.928 261.965C330.936 262.882 329.887 263.737 328.788 264.525C329.453 263.821 330.066 263.053 330.728 262.311C332.694 261.031 333.78 260.238 334.558 259.751C335.339 259.265 335.645 259.073 336.041 258.842C336.434 258.612 336.871 258.305 337.764 257.639C338.657 256.974 340.01 255.899 342.155 254.018L341.811 253.531C342.828 252.822 343.762 251.998 344.594 251.074C345.563 250.025 346.47 248.834 347.274 247.862C348.768 245.852 349.725 244.598 349.15 246.582C348.398 247.299 347.684 248.028 346.892 248.694L347.606 248.962C350.335 245.562 352.798 241.955 354.975 238.173C354.769 239.543 357.819 234.027 357.527 235.819C358.088 234.283 358.663 232.773 359.149 231.237C359.594 230.84 359.657 231.237 359.519 231.915C359.224 232.963 358.871 233.993 358.458 235C357.475 237.393 356.148 240.042 356.301 240.452C356.813 240.58 357.949 238.519 358.458 237.495C357.492 239.807 356.076 241.903 354.295 243.664C353.506 244.47 352.688 245.238 351.858 246.121C350.896 247.033 349.994 248.003 349.15 249.026L347.684 251.65L347.135 250.946C345.982 252.395 344.996 253.971 344.198 255.643C342.923 256.47 341.715 257.394 340.585 258.407C339.385 259.393 338.249 260.545 336.96 261.684C334.133 264.391 331.06 266.825 327.78 268.953C330.69 266.624 329.58 267.123 327.895 268.083C326.21 269.043 323.808 270.348 324.282 269.913C323.426 270.45 322.29 271.193 321.013 272.152C319.735 273.112 318.255 273.983 316.801 274.93C315.344 275.877 313.876 276.76 312.56 277.489C311.456 278.034 310.285 278.425 309.077 278.654C306.739 279.243 313.315 275.992 308.106 278.155C304.825 279.78 302.718 281.277 305.042 280.715C296.818 284.376 288.269 287.256 279.508 289.315L281.435 288.188C280.071 288.417 278.721 288.716 277.388 289.084C276.111 289.405 274.835 289.726 273.66 290.096C271.711 290.694 269.797 291.405 267.928 292.221C267.111 292.105 266.715 292.348 267.519 291.848C264.572 291.923 261.655 292.464 258.876 293.45C257.472 293.808 255.914 294.216 253.973 294.589C251.584 295.083 249.159 295.381 246.722 295.482C247.928 296.002 249.26 296.153 250.552 295.919C252.569 295.76 254.574 295.465 256.552 295.037L255.684 296.098C265.75 295.037 275.668 292.857 285.253 289.596L281.716 291.272C289.094 290.709 286.376 288.713 293.283 288.112C297.968 286.23 289.658 288.739 293.141 287.19C294.878 286.781 294.803 287.19 294.994 287.6C295.185 288.009 295.682 288.252 298.492 287.165C287.439 291.437 275.966 294.522 264.264 296.367C252.311 298.255 240.233 299.22 228.133 299.258C227.686 299.437 228.925 299.501 230.163 299.579C228.331 299.764 226.489 299.839 224.648 299.81C223.371 299.81 221.89 299.81 220.307 299.81L215.2 299.527C207.872 299.157 198.884 298.107 190.151 296.867C185.785 296.199 181.47 295.586 177.384 294.831L166.405 292.912C160.021 291.784 155.527 291.235 154.914 291.695C153.816 291.171 157.608 291.466 152.706 290.645C152.233 290.735 150.956 290.723 152.055 291.235C145.232 289.515 138.266 288.426 131.244 287.984C123.591 287.462 115.909 287.518 108.264 288.15C108.634 288.432 105.404 289.11 105.391 289.341C103.926 289.379 102.468 289.558 101.038 289.879C100.223 290.012 99.4172 290.197 98.6246 290.428C97.8077 290.634 96.9906 290.888 96.1991 291.157C92.9691 292.232 89.9305 293.652 87.7218 294.563C88.2325 294.435 88.743 294.305 89.2538 294.204C84.7574 296.292 80.5374 298.931 76.6911 302.062C76.4229 302.421 77.9676 301.152 78.9765 300.475C78.1706 301.183 77.3175 301.84 76.4229 302.432C76.1015 302.652 75.7257 302.773 75.3377 302.791C73.8312 304.456 72.4015 306.156 71.0865 307.911C67.4195 311.49 64.4722 315.746 62.4048 320.438C58.9534 328.097 58.4978 336.776 61.128 344.756C62.0299 347.485 63.1442 350.136 64.4603 352.692C67.1029 357.81 70.167 362.93 72.8992 367.984C74.8909 370.826 76.4486 373.347 79.3465 378.415L78.0061 375.856C81.1083 380.973 78.0061 376.226 80.6233 380.566C82.4363 383.471 81.4532 381.283 79.0785 377.29C77.7378 374.729 78.6955 376.226 79.7552 378.019C88.6537 394.273 96.7353 409.564 104 422.632Z" fill="#EFA142"/>
<path d="M121.529 320.684C122.588 319.736 125.359 318.776 125.474 319.684C125.308 318.787 125.295 318.776 127.044 317.689C127.146 318.29 128.806 317.689 129.891 317.483C128.298 317.296 126.683 317.431 125.142 317.88C124.184 318.828 122.435 319.16 120.686 319.568C118.937 319.979 117.226 320.528 116.486 321.629C118.082 321.259 119.818 321.592 121.529 320.684Z" fill="white"/>
<path d="M132.138 322.179L132.393 321.771C131.116 322.142 129.993 322.587 128.818 323.046C129.495 322.538 131.934 321.757 132.138 322.179Z" fill="white"/>
<path d="M144.076 319.863C143.769 320.542 145.697 320.849 145.684 321.465C145.557 320.184 148.646 321.066 150.281 320.912L150.944 319.889C149.336 319.146 145.263 319.504 141.829 319.698C142.582 319.747 143.322 319.788 144.076 319.863Z" fill="#EFA142"/>
<path d="M147.191 320.502L148.25 319.825C147.344 319.978 145.263 320.207 147.191 320.502Z" fill="white"/>
<path d="M144.714 316.983C141.969 316.983 146.386 317.368 143.641 317.686C144.548 317.481 145.62 317.417 144.714 316.983Z" fill="white"/>
<path d="M156.102 318.993C154.187 319.12 152.272 319.21 150.37 319.404C151.161 319.557 151.953 319.684 152.732 319.849L156.102 318.993Z" fill="#EFA142"/>
<path d="M156.345 321.17C155.604 321.17 154.455 320.748 155.515 320.415C157.519 321.271 158.822 320.222 160.622 320.976L158.809 321.234C159.013 322.052 162.639 320.569 162.435 322.04C164.988 321.156 160.647 320.681 163.865 320.132C161.295 320.129 158.731 319.889 156.205 319.415C156.886 319.672 157.592 319.86 158.311 319.979C156.524 319.979 154.098 320.349 152.004 320.415C153.064 321.439 154.609 320.569 156.345 321.17Z" fill="#EFA142"/>
<path d="M165.358 321.835C167.273 322.04 170.222 322.294 170.835 321.259C168.869 320.326 168.434 321.259 167.477 321.603C166.915 321.375 165 321.155 165.817 320.644C166.085 320.901 164.515 321.349 165.358 321.835Z" fill="#EFA142"/>
<path d="M172.878 322.538L174.359 321.719L173.453 321.797V321.106C173.116 321.531 172.672 321.858 172.167 322.055C171.662 322.248 171.114 322.306 170.58 322.22C171.486 322.87 171.882 322.269 172.878 322.538Z" fill="#EFA142"/>
<path d="M173.746 317.932C174.879 318.394 176.127 318.495 177.321 318.224C175.227 318.096 172.214 317.764 171.601 318.111L171.78 317.958C170.607 318.134 169.453 318.42 168.333 318.813C170.516 318.328 174.231 319.692 173.746 317.932Z" fill="#EFA142"/>
<path d="M178.853 322.87L175.929 322.32L176.618 322.664L178.853 322.87Z" fill="#EFA142"/>
<path d="M175.585 319.733C177.934 320.092 174.308 318.866 176.58 319.109C177.193 319.109 173.312 318.803 173.095 319.236C173.631 319.468 175.406 318.918 175.585 319.733Z" fill="#EFA142"/>
<path d="M186.794 324.024L187.304 323.587C189.628 324.151 192.858 323.717 194.518 324.767C194.147 324.189 195.565 323.677 193.496 323.396C193.164 323.665 192.424 323.613 192.513 323.986C191.632 323.819 191.849 323.422 191.236 323.217C189.679 323.639 187.406 323.064 186.13 323.434C186.528 323.405 186.927 323.457 187.304 323.587C184.649 324.229 184.38 322.142 183.129 323.434C184.074 323.09 185.568 324.151 186.794 324.024Z" fill="#EFA142"/>
<path d="M186.845 320.771L184.802 320.401C185.492 319.837 187.356 320.606 187.7 320.068C187.598 319.684 185.569 319.299 186.347 319.108C185.977 320.58 183.526 318.903 184.458 320.684C181.764 320.618 183.717 319.684 180.883 319.478L180.015 320.21C183.194 320.12 183.679 320.886 186.845 320.771Z" fill="#EFA142"/>
<path d="M194.773 321.656L195.756 322.179L195.245 321.488C199.816 321.731 202.459 324.318 205.28 323.919C206.959 323.573 208.682 323.486 210.387 323.665C212.12 323.812 213.863 323.812 215.596 323.665C217.294 323.026 213.91 323.575 213.706 323.255C214.128 322.321 215.43 323.627 216.17 322.78C216.336 322.167 212.493 322.358 210.961 322C209.685 322.141 209.685 322.335 209.289 322.757C208.944 322.373 207.591 322.269 207.246 321.873C204.514 322.436 203.084 321.349 200.378 321.873C199.548 321.245 202.395 321.873 201.501 321.719H200.033L200.186 321.82C197.833 322.13 195.44 321.858 193.215 321.028C194.211 321.323 194.888 321.861 193.675 321.988L192.743 321.182L190.087 322.04C192.13 321.387 194.313 322.948 194.773 321.656Z" fill="#EFA142"/>
<path d="M192.015 320.132C188.977 319.467 192.296 321.257 188.964 320.618L192.513 320.846L192.015 320.132Z" fill="#EFA142"/>
<path d="M206.621 322.537L208.153 322.933C207.297 322.092 204.936 323.292 206.621 322.537Z" fill="white"/>
<path d="M212.238 322.373L211.472 323.188L212.877 322.665L212.238 322.373Z" fill="white"/>
<path d="M217.435 322.87C218.533 322.385 217.141 322.22 215.826 322.437C217.039 322.347 217.677 322.601 217.435 322.87Z" fill="#EFA142"/>
<path d="M226.078 322.795C223.524 323.356 228.389 322.462 226.639 323.408C226.933 323.064 228.159 322.451 226.078 322.795Z" fill="white"/>
<path d="M234.658 321.745C233.764 322.179 233.381 322.216 233.215 322.127C233.683 321.956 234.166 321.826 234.658 321.745Z" fill="#EFA142"/>
<path d="M139.645 321.667C139.255 321.765 138.858 321.835 138.458 321.872L139.633 321.667H139.645Z" fill="#EFA142"/>
<path d="M138.101 320.3C140.169 319.325 140.539 321.745 143.923 320.964C142.544 321.219 141.101 321.45 139.633 321.667C137.565 320.785 141.101 320.901 138.101 320.3Z" fill="#EFA142"/>
<path d="M111.737 386.235H111.903C112.081 386.848 112.196 387.513 112.337 388.129C112.145 387.476 111.979 386.837 111.737 386.235Z" fill="white"/>
<path d="M111.915 385.877C111.622 384.813 111.328 383.752 110.958 382.702C113.679 388.652 115.205 395.079 115.452 401.619L115.273 401.003C115.184 401.145 114.992 397.164 114.15 393.209C113.718 390.679 112.967 388.216 111.915 385.877Z" fill="white"/>
<path d="M111.328 385.108C110.734 384.466 110.297 383.697 110.051 382.856C109.821 381.919 109.385 381.043 108.774 380.297C109.803 381.248 110.59 382.433 111.072 383.752C111.188 384.212 111.251 384.674 111.328 385.108Z" fill="white"/>
<path d="M103.719 378.953C103.617 378.823 103.54 378.696 103.451 378.568C103.591 378.696 103.719 378.826 103.821 378.901L103.719 378.953Z" fill="#EFA142"/>
<path d="M103.821 378.851L104.091 378.735C104.168 379.108 104.04 379.082 103.821 378.851Z" fill="#EFA142"/>
<path d="M103.413 378.568C103.131 378.274 102.823 378.005 102.494 377.762L102.71 378.146C102.315 377.698 101.434 376.955 101.434 376.637C102.072 377.635 102.251 377.533 102.621 377.354L101.587 375.726C102.71 375.51 102.557 377.149 103.413 378.568Z" fill="#EFA142"/>
<path d="M98.7527 370.75C99.1484 371.082 100.183 372.783 99.7612 371.632C100.039 371.886 100.269 372.19 100.438 372.528C99.5826 371.464 99.6592 372.898 98.7527 370.75Z" fill="#EFA142"/>
<path d="M100.438 372.528C100.54 372.656 100.655 372.797 100.783 372.988C100.657 372.843 100.541 372.69 100.438 372.528Z" fill="#EFA142"/>
<path d="M97.2716 366.78L96.9141 366.063C97.0074 366.26 97.1141 366.448 97.2335 366.627L97.2716 366.78Z" fill="#EFA142"/>
<path d="M111.443 423.439C112.743 420.776 113.762 417.983 114.482 415.106C114.29 415.106 114.801 413.609 114.648 413.354C114.201 415.274 115.12 411.678 115.35 407.876C115.58 404.074 115.197 400.197 115.209 401.758C115.286 402.064 115.375 402.374 115.426 402.68C115.299 402.359 115.133 402.041 114.992 401.732C114.992 400.798 114.992 399.673 114.992 398.636C115.009 397.768 114.884 396.904 114.622 396.077C115.115 398.636 115.351 401.238 115.324 403.845C115.313 406.372 115.151 408.899 114.839 411.409C115.06 407.936 115.06 404.453 114.839 400.977C114.545 397.002 113.685 393.09 112.286 389.358L112.528 388.999C111.985 387.86 111.353 386.764 110.639 385.724C110.039 384.764 109.362 383.917 108.724 382.908L108.915 382.217C109.492 383.443 110.166 384.619 110.932 385.735C110.188 383.844 109.336 382 108.379 380.207C107.843 380.592 109.094 382.127 107.307 379.707C107.115 378.825 108.736 380.193 107.307 377.929C105.8 375.023 105.251 376.137 103.681 373.757L104.485 375.524C103.636 374.471 102.968 373.286 102.506 372.017C103.094 373.066 105.06 375.394 105.596 374.96C104.83 374.026 103.668 371.606 103.042 370.724L103.821 371.005C103.655 369.724 102.685 369.585 102.391 368.099C101.472 367.05 102.111 369.201 101.562 368.637C101.224 367.382 100.657 366.203 99.8891 365.156C99.0973 366.269 101.6 367.819 101.498 369.814C101.127 369.047 100.77 368.278 100.425 367.498C98.6507 366.642 102.43 371.042 101.281 370.747C100.855 370.458 100.498 370.08 100.231 369.637C99.9648 369.195 99.7957 368.701 99.7359 368.189C99.6864 367.683 99.5141 367.197 99.2335 366.772C98.9531 366.35 98.5733 366 98.1272 365.757C98.357 367.038 100.272 370.351 99.6847 370.109C99.3656 368.741 98.1654 368.293 97.1314 366.628C96.927 365.861 96.7611 365.078 96.6206 364.286C95.8673 363.517 96.1865 364.286 96.2888 365.066C95.8673 363.363 95.012 361.163 94.3738 358.668C93.6829 356.06 93.6479 353.32 94.2714 350.694C94.4504 347.673 93.7352 350.246 93.4672 348.786C94.4758 347.303 94.5397 344.513 95.1652 342.9C95.4077 342.466 95.012 341.275 94.527 341.619C94.1174 343.042 93.8144 344.493 93.6205 345.959C93.2629 345.638 92.3437 346.074 92.1905 347.714C93.0458 347.329 92.4969 348.812 92.1905 350.567C91.8841 352.319 91.7563 354.407 92.6374 354.407H91.8586C92.1708 356.321 92.6666 358.203 93.3395 360.024V359.833C93.5083 360.73 93.8231 361.594 94.2714 362.392C94.9227 363.786 95.7526 365.462 96.2888 366.795C95.7699 366.006 95.3172 365.176 94.9354 364.312C94.5012 363.415 94.1821 362.967 94.3738 364.491C93.6109 363.161 93.0634 361.718 92.7521 360.215C92.3309 358.373 92.0118 356.263 91.7181 354.048L91.2712 354.944C90.7321 352.325 90.8111 349.616 91.501 347.034C92.2006 344.421 93.1233 341.873 94.2587 339.419C94.2587 339.994 94.2587 340.546 94.3353 341.107C95.28 339.598 96.8123 337.985 97.1441 336.296C96.0844 338.089 96.2758 336.95 96.1865 336.438C96.9051 334.883 97.8422 333.437 98.9699 332.151C100.246 330.705 101.6 329.23 102.979 327.799C102.979 327.799 102.979 328.068 103.144 328.042C104.051 327.004 104.996 326.033 105.979 325.085C107.113 324.342 108.44 323.945 109.796 323.945C110.307 323.497 111.788 322.668 110.996 322.563C110.688 322.679 110.396 322.835 110.128 323.026C111.405 321.234 111.405 322.537 113.409 320.913C112.03 322.436 114.418 321.63 114.533 322.436C116.946 320.95 114.201 321.054 114.367 320.595C117.737 319.568 118.375 320.068 121.631 319.12C121.631 318.597 119.244 319.568 118.797 319.12C119.565 318.996 120.297 318.701 120.942 318.264C120.24 318.365 119.524 318.47 118.822 318.597C122.389 317.932 125.918 317.079 129.393 316.038L129.049 315.859C129.84 315.691 130.632 315.564 131.411 315.448L130.734 316.486C131.947 316.038 133.428 316.625 133.989 315.795H133.517C134.028 315.628 134.539 315.422 135.062 315.269C134.551 315.628 134.053 316.024 133.568 316.408C134.777 316.287 135.951 315.934 137.028 315.37C138.416 314.688 139.927 314.292 141.471 314.208C141.867 314.795 140.462 315 138.918 315.281C137.373 315.564 135.713 315.998 135.611 316.804C136.804 317.033 138.037 316.929 139.173 316.498C139.007 316.087 138.228 316.165 137.45 316.24C140.233 315.064 144.561 316.24 146.297 314.757L144.127 314.321C146.68 314.066 148.276 315.68 149.08 314.795C148.442 315.321 147.803 315.818 147.165 316.371C149.719 315.55 152.872 315.729 155.208 315.243C155.285 314.347 151.838 315.168 152.004 315L153.127 314.373C156.766 315.026 154.174 314.911 158.54 315.654V315.052C159.97 316.012 163.954 314.578 162.37 316.05L161.209 315.602L161.273 316.319C162.945 316.319 164.643 316.217 166.316 316.217C165.792 316.703 168.205 316.755 167.516 317.394L169.392 316.934C170.158 317.981 165.933 317.816 165.69 318.571C165.69 319.03 166.584 319.045 166.967 319.007C164.72 319.568 163.749 317.727 161.541 317.585L160.417 318.149L160.519 317.267C159.738 317.38 159.012 317.732 158.438 318.276C156.306 316.998 153.893 318.339 150.6 318.059C153.357 317.536 148.837 317.2 149.323 316.957C147.791 316.957 144.114 318.686 142.761 317.648C141.841 317.278 144.599 316.868 142.454 316.819C141.075 317.036 140.169 317.573 141.088 317.943C138.062 318.418 134.411 318.686 131.092 319.288L131.781 318.559C130.857 318.536 129.938 318.704 129.082 319.051C128.225 319.398 127.449 319.918 126.802 320.58C126.457 320.401 126.329 320.58 126.572 320.196C126.002 320.129 125.423 320.19 124.879 320.375C124.336 320.563 123.841 320.866 123.431 321.271C122.214 322.266 120.819 323.017 119.32 323.486C119.857 324.188 121.695 323.601 122.895 322.795V323.83C126.457 322.743 130.555 321.656 133.415 320.67L132.138 321.592C134.909 322.5 133.798 320.005 136.428 321.181C138.19 320.632 135.062 320.837 136.428 320.274C137.705 320.401 136.313 321.977 138.42 321.797L135.432 322.309L132.381 322.91C130.326 323.306 128.257 323.807 126.202 324.382C122.136 325.46 118.217 327.033 114.533 329.066C114.533 329.309 114.89 329.144 115.299 329.066C113.98 330.153 112.566 331.115 111.073 331.945C108.65 333.46 106.428 335.273 104.459 337.346C102.555 339.347 101.024 341.674 99.9399 344.218C99.1103 346.317 98.9698 347.893 99.4803 348.173C99.0719 348.494 99.008 347.15 98.6634 348.812C98.7782 348.992 98.8932 349.454 99.289 349.133C98.272 351.339 97.9902 353.817 98.4845 356.196C98.9857 358.821 99.6639 361.409 100.515 363.942C100.77 363.696 101.408 364.682 101.625 364.592C101.625 366.59 103.898 368.969 104.421 370.672V370.007L107.243 374.755C107.421 374.833 107.051 374.179 106.86 373.769C107.6 374.743 107.421 375.165 107.243 375.42C107.868 376.009 108.52 376.596 109.069 377.224C110.345 380.693 112.299 384.391 113.665 388.473C115.115 392.581 115.833 396.915 115.784 401.272C116.174 402.724 116.308 404.23 116.18 405.725C116.18 405.381 116.282 405.022 116.32 404.664C116.397 406.864 116.192 404.791 116.141 406.647C116.141 407.928 116.473 407.058 116.512 405.369C116.665 404.294 116.754 404.958 116.716 405.725C116.025 411.897 114.24 417.896 111.443 423.439Z" fill="#EFA142"/>
<path d="M255.059 309.83C254.523 310.328 257.025 307.668 255.736 308.897C255.225 309.368 254.689 309.932 254.089 310.458L252.122 312.068L251.088 312.927L249.952 313.719L247.603 315.37C244.465 317.434 241.075 319.088 237.517 320.285C235.768 320.733 235.296 320.811 233.687 321.181C233.68 321.222 233.686 321.265 233.704 321.3C233.723 321.337 233.752 321.369 233.789 321.386C231.715 322.15 229.58 322.734 227.405 323.127C226.908 323.332 226.614 323.792 227.572 323.474C226.416 323.867 225.205 324.081 223.984 324.098C223.069 324.046 222.151 324.136 221.265 324.367C222.631 324.367 219.988 324.995 221.609 324.919C218.737 325.532 218.813 323.96 216.503 324.049C216.375 324.188 216.247 324.33 216.707 324.304C214.153 323.971 209.123 325.394 208.791 324.202L207.808 324.74C206.992 324.298 206.091 324.035 205.166 323.971C203.991 324.176 205.166 324.434 204.783 324.624C204.285 324.139 201.106 324.382 199.676 323.575C199.612 322.757 202.229 324.766 203.646 323.997C203.646 323.829 203.493 323.792 203.199 323.78C205.063 323.78 206.825 323.986 208.523 324.113C210.221 324.24 211.843 324.419 213.426 324.509C216.529 324.766 219.654 324.526 222.682 323.792C223.21 323.873 223.75 323.827 224.257 323.656C224.763 323.482 225.221 323.193 225.593 322.806C225.018 322.806 223.946 322.922 223.039 323.063C222.133 323.205 221.316 323.433 221.341 323.881L219.35 323.613C218.622 323.754 218.532 322.82 218.201 322.693C219.567 322.693 220.946 321.554 219.107 321.412C222.605 320.849 218.226 323.497 221.316 322.806L221.686 322.115C221.137 322.537 223.895 322.436 224.865 321.999H224.418C229.093 321.314 233.676 320.1 238.079 318.38C242.691 316.619 247.075 314.312 251.14 311.507C252.497 310.816 253.738 309.92 254.816 308.845C255.442 308.269 256.093 307.705 256.642 307.205C257.191 306.708 257.663 306.196 258.059 305.823C258.761 305.08 257.012 306.835 258.378 305.427C258.605 305.173 258.849 304.933 259.106 304.71L259.732 304.057C259.974 303.802 259.795 303.967 259.068 304.852C258.34 305.734 257.255 307.411 255.059 309.83Z" fill="#EFA142"/>
<path d="M5.89863 275.058C5.89863 273.023 7.06043 268.864 7.89027 269.26C7.06043 268.864 7.06043 268.876 7.52004 265.882C8.03073 266.163 8.9244 263.68 9.56276 262.119C8.13609 264.069 7.01658 266.227 6.24334 268.518C6.22753 269.605 6.03342 270.681 5.66883 271.705C5.31135 272.882 4.89004 274.149 4.39213 275.403C4.01632 276.594 3.70101 277.803 3.44738 279.025C3.25094 280.061 3.25094 281.125 3.44738 282.161C4.12402 279.934 5.47733 277.912 5.89863 275.058Z" fill="white"/>
<path d="M14.9756 262.387L14.8607 261.786C14.1713 263.565 13.584 265.382 13.0095 267.174C13.2136 266.201 13.4954 265.247 13.8521 264.32C14.2607 263.309 14.7458 262.387 14.9756 262.387Z" fill="white"/>
<path d="M24.0781 246.454C24.2569 247.247 26.4017 245.277 26.8358 245.737C25.7506 244.931 29.5808 242.141 31.2661 240.349V238.916C28.955 240.029 24.8824 244.752 21.729 248.924C22.495 248.067 23.2993 247.273 24.0781 246.454Z" fill="#EFA142"/>
<path d="M27.7046 243.395L28.343 241.757C27.5004 242.857 25.5343 245.302 27.7046 243.395Z" fill="white"/>
<path d="M22.6358 243.715C19.9165 246.927 24.5636 242.026 22.0741 245.455C22.8018 244.214 23.8742 242.972 22.6358 243.715Z" fill="white"/>
<path d="M36.5522 233.028C34.3663 234.962 32.2865 237.012 30.3218 239.171C31.2667 238.416 32.2498 237.713 33.2456 237.034C34.2796 235.652 35.4286 234.359 36.5522 233.028Z" fill="#EFA142"/>
<path d="M38.3008 234.449C37.4201 235.115 35.8496 235.972 36.8584 234.667C38.0757 234.096 39.1926 233.331 40.165 232.402C41.1204 231.547 42.2179 230.867 43.4077 230.392C42.7056 230.981 42.0289 231.608 41.3522 232.21C41.7479 232.453 42.7695 231.455 43.8292 230.61C44.8889 229.765 45.974 229.061 46.2931 229.727C48.9615 227.001 43.1906 230.034 47.0207 227.026C43.1906 229.509 40.2416 231.147 37.0243 233.298C37.9866 232.862 38.9206 232.367 39.8202 231.813C37.3524 233.833 35.0156 236.009 32.824 238.327C33.8036 238.015 34.6844 237.45 35.3773 236.689C36.2445 235.811 37.2284 235.058 38.3008 234.449Z" fill="#EFA142"/>
<path d="M49.7912 227.269C52.3445 225.989 56.4556 224.313 56.8256 223.046C53.6467 223.404 53.5317 224.582 52.4593 225.516C51.5785 225.721 48.9483 226.975 49.7401 225.925C50.187 225.951 48.3867 227.487 49.7912 227.269Z" fill="#EFA142"/>
<path d="M60.2218 223.071C60.7965 222.56 61.3708 222.022 61.9709 221.549C61.5344 221.701 61.1081 221.88 60.6941 222.086L60.3369 221.484C60.1172 221.873 59.8466 222.23 59.5324 222.547C58.7548 223.255 57.8368 223.792 56.8386 224.121C58.4218 224.07 58.7282 223.314 60.2218 223.071Z" fill="#EFA142"/>
<path d="M59.5069 218.35C60.4203 218.289 61.3239 218.126 62.2009 217.863C63.0305 217.594 63.8732 217.236 65.0222 216.891C63.3881 217.223 61.4476 217.799 59.7878 218.298C58.6041 218.631 57.4704 219.121 56.4174 219.757L56.6087 219.501C56.6087 219.501 55.9193 219.898 55.0001 220.461C53.982 221.069 53.0206 221.767 52.1277 222.547C53.8034 221.545 55.5901 220.741 57.4513 220.154C59.0857 219.565 60.222 219.028 59.5069 218.35Z" fill="#EFA142"/>
<path d="M55.4214 219.627C56.1235 219.167 56.8129 218.707 57.5535 218.35C56.8129 218.707 56.1747 219.167 55.4214 219.627Z" fill="#EFA142"/>
<path d="M68.8012 220.729C67.333 220.845 65.8776 221.113 64.4094 221.317C64.7794 221.317 65.1627 221.317 65.5327 221.317C66.6181 221.151 67.6648 220.87 68.8012 220.729Z" fill="#EFA142"/>
<path d="M62.9541 219.079C66.5798 218.298 60.7965 218.836 64.2306 218.017C65.1244 217.645 59.2133 219.297 59.124 219.911C60.0048 219.757 62.3794 218.401 62.9541 219.079Z" fill="#EFA142"/>
<path d="M71.6487 220.382C72.8234 220.05 74.0106 219.641 75.2235 219.386C74.0491 219.641 72.7723 220.05 71.6487 220.382Z" fill="#EFA142"/>
<path d="M80.6618 220.435L81.4024 219.975C84.8622 220.486 89.6627 220.678 91.948 222.176C91.4757 221.51 93.6459 221.344 90.6712 220.551C90.135 220.755 89.0498 220.551 89.1646 220.934C87.8881 220.576 88.2072 220.218 87.3519 219.949C85.0281 220.102 81.5429 219.373 79.6914 219.872C80.2806 219.815 80.8749 219.85 81.4536 219.975C77.6232 220.691 76.8829 218.695 75.2358 220.205C76.0785 220.032 76.9468 220.032 77.7894 220.205C78.7335 220.402 79.6984 220.48 80.6618 220.435Z" fill="#EFA142"/>
<path d="M80.4322 217.185C79.347 217.108 78.2616 216.967 77.1764 216.955C78.185 216.276 81.1597 216.955 81.7217 216.456C81.5557 216.033 78.2489 215.777 79.4618 215.547C79.2447 216.302 78.1214 216.251 77.2658 216.315C76.4104 216.379 75.8233 216.468 76.6914 217.287C72.5037 217.62 75.3507 216.366 70.8824 216.814C70.4994 217.121 70.1164 217.467 69.7461 217.786C70.741 217.553 71.7528 217.399 72.772 217.326C73.5351 217.245 74.3032 217.219 75.07 217.249C76.6021 217.275 77.9936 217.275 80.4322 217.185Z" fill="#EFA142"/>
<path d="M92.7521 219.156L94.1563 219.975L93.4926 219.143C96.3942 219.855 99.1505 221.068 101.638 222.726C103.458 224.045 105.458 225.097 107.575 225.849C112.809 226.988 116.895 229.996 121.95 231.877C124.504 232.427 119.716 230.674 119.576 230.303C120.61 229.74 121.759 231.711 123.176 231.48C123.725 231.032 118.35 228.716 116.371 227.423C114.469 226.732 114.405 226.95 113.69 227.078C113.371 226.515 111.519 225.619 111.136 225.056C107.026 224.019 105.327 222.176 101.153 221.421C100.093 220.435 104.153 222.33 102.876 221.792C102.149 221.536 101.421 221.319 100.693 221.075L100.897 221.242C98.9733 220.898 97.0814 220.393 95.2418 219.732C93.2501 219.117 91.4117 218.452 90.4286 218.029C91.9606 218.554 92.9819 219.309 91.0541 219.092L89.688 218.08C88.3092 218.08 86.9049 218.337 85.5515 218.49C87.0601 218.429 88.5667 218.65 89.9944 219.143C91.3221 219.476 92.3179 219.706 92.7521 219.156Z" fill="#EFA142"/>
<path d="M88.6032 216.966C83.8155 215.881 89.0371 218.064 83.7773 217.068C84.722 217.068 85.6412 217.247 86.5732 217.375C87.5051 217.503 88.4243 217.592 89.3435 217.796L88.6032 216.966Z" fill="#EFA142"/>
<path d="M109.975 225.273L111.979 226.553C111.072 225.273 107.242 225.03 109.975 225.273Z" fill="white"/>
<path d="M117.916 228.575L116.486 228.818L118.669 229.252L117.916 228.575Z" fill="white"/>
<path d="M124.81 232.389C126.559 232.696 124.733 231.633 122.831 230.955C124.504 231.672 125.27 232.312 124.81 232.389Z" fill="#EFA142"/>
<path d="M136.607 237.878C132.777 236.78 139.952 239.002 137.041 238.746C137.602 238.632 139.633 238.861 136.607 237.878Z" fill="white"/>
<path d="M149.118 241.615C148.352 241.681 147.58 241.558 146.872 241.258C147.628 241.325 148.379 241.444 149.118 241.615Z" fill="#EFA142"/>
<path d="M102.608 224.734L101.332 224.274C101.765 224.415 102.136 224.581 102.608 224.734Z" fill="#EFA142"/>
<path d="M103.413 225.042L102.57 224.735C102.928 224.837 103.208 224.952 103.413 225.042Z" fill="#EFA142"/>
<path d="M21.1423 252.866C20.772 253.532 20.4656 254.031 20.1975 254.415L21.1295 252.879L21.1423 252.866Z" fill="#EFA142"/>
<path d="M18.6907 253.787C19.1355 252.605 20.0116 251.635 21.142 251.074C22.6051 250.145 23.8332 248.887 24.7295 247.401C23.5166 249.129 22.3165 250.972 21.1292 252.879C18.5502 254.709 21.9335 250.601 18.6907 253.787Z" fill="#EFA142"/>
<path d="M50.5952 223.636L50.7496 223.534C51.0713 223.353 50.8912 223.456 50.5952 223.636Z" fill="#EFA142"/>
<path d="M46.7654 382.202L46.9059 382.101L48.8975 384.2L46.7654 382.202Z" fill="white"/>
<path d="M46.6891 381.705L43.408 378.03C50.1362 384.917 57.7836 390.931 64.8694 397.612L64.0779 397.089C64.0779 397.19 63.031 396.204 61.3712 394.721C59.7117 393.235 57.4391 391.263 55.2049 389.28C50.749 385.351 46.4339 381.332 46.6891 381.705Z" fill="white"/>
<path d="M45.5018 380.924C42.9485 379.464 42.2973 377.507 39.6035 375.292C40.5227 376.021 41.3269 376.573 42.0802 377.249C42.8884 377.868 43.6328 378.568 44.3016 379.337L45.5018 380.924Z" fill="white"/>
<path d="M32.9771 373.462C32.801 373.286 32.6348 373.104 32.479 372.913C32.6663 373.084 32.8623 373.246 33.0664 373.396L32.9771 373.462Z" fill="#EFA142"/>
<path d="M33.0662 373.398L33.309 373.245C33.5769 373.731 33.411 373.653 33.0662 373.398Z" fill="#EFA142"/>
<path d="M32.4794 372.913C32.0123 372.488 31.5174 372.095 30.9983 371.733L31.4325 372.271C30.6367 371.626 29.9131 370.898 29.2749 370.097C30.4748 371.505 30.6537 371.375 31.011 371.184C30.36 370.415 29.6706 369.686 29.0833 368.868C30.1814 368.726 30.7303 370.877 32.4794 372.913Z" fill="#EFA142"/>
<path d="M23.9636 361.753C24.5254 362.239 26.2106 364.722 25.3808 363.031C25.7804 363.427 26.1475 363.855 26.4787 364.312C25.1254 362.852 25.6872 364.771 23.9636 361.753Z" fill="#EFA142"/>
<path d="M26.4788 364.363C26.6447 364.54 26.8235 364.745 27.0405 365.025C26.8397 364.817 26.6521 364.595 26.4788 364.363Z" fill="#EFA142"/>
<path d="M21.0401 356.286L20.4272 355.303C20.606 355.595 20.7847 355.838 20.9507 356.08L21.0401 356.286Z" fill="#EFA142"/>
<path d="M83.9813 425C82.7768 420.671 80.9259 416.552 78.4915 412.779C78.4915 412.969 77.2147 410.87 76.8317 410.729C75.1967 408.491 73.4274 406.354 71.5334 404.331C67.7034 400.121 63.1839 396.319 64.8691 397.933L66.0181 398.777L64.7413 398.06C62.7945 395.946 60.695 393.977 58.46 392.173C58.3068 391.954 62.8902 395.845 67.1671 400.032C69.9005 402.686 72.4873 405.487 74.9166 408.425C73.9023 407.439 72.9391 406.401 72.0312 405.317C69.4146 402.506 66.6575 399.835 63.7712 397.305C60.5537 394.437 57.1832 391.621 54.5918 389.459C52 387.296 50.187 385.772 49.9699 385.683L49.8933 385.159C46.3951 382.601 44.0462 380.961 41.148 378.631C41.0587 378.336 40.9949 378.018 40.9182 377.697C42.3514 379.189 43.9199 380.542 45.6037 381.742C43.8545 380.117 42.8844 379.105 42.0034 378.198C41.1223 377.287 40.4459 376.393 39.1691 375.113C38.7734 375.636 41.0842 377.596 37.6625 374.497C36.9731 373.346 39.5521 375.113 36.7179 372.181C35.8715 370.973 34.8268 369.917 33.6284 369.059C32.5114 368.35 31.537 367.44 30.7557 366.373C31.2792 367.191 31.7899 368.035 32.3643 368.816C30.9583 367.33 29.7486 365.67 28.764 363.875C29.811 365.346 32.939 368.752 33.4367 368.162C32.1599 366.884 29.9897 363.441 28.9811 362.212L29.9769 362.686C29.3257 361.021 28.1895 360.614 27.3597 358.526C25.9553 356.991 27.3597 360.012 26.5936 359.165C25.7614 357.393 24.729 355.725 23.5168 354.186C22.9933 355.699 26.3766 358.026 26.9128 360.778L24.9339 357.488C22.6359 356.121 28.3938 362.608 26.9639 362.033C24.4105 360.267 24.4105 356.505 21.8571 354.982C22.4571 356.708 25.8021 361.38 25.0233 361.021C24.6208 360.148 24.0528 359.362 23.3508 358.705C22.497 357.936 21.7267 357.078 21.0528 356.147L19.7761 352.972C18.6909 351.949 19.2909 352.972 19.6867 354.007C18.6015 351.743 17.0184 348.786 15.2821 345.614C13.5294 342.367 12.1503 338.933 11.1711 335.374C9.44757 331.534 10.4306 335.079 9.29437 333.468C9.14186 332.078 8.79814 330.719 8.273 329.424C7.73679 328.004 7.09845 326.582 6.74097 325.469C6.62606 324.789 5.46426 323.766 5.37492 324.509C5.66245 325.434 5.99912 326.345 6.38348 327.235L7.55806 329.973C7.06015 329.834 6.65159 330.884 7.44316 332.867C7.90277 331.933 8.45175 333.954 9.14117 336.18C9.43783 337.259 9.7959 338.317 10.2136 339.355C10.6604 340.214 11.1073 340.763 11.4903 340.699L10.7498 340.928L12.6648 344.296L13.6096 345.947L14.631 347.545V347.303C15.1652 348.416 15.7975 349.477 16.5205 350.477L17.4014 351.897L18.3717 353.368C19.0228 354.354 19.6484 355.352 20.1208 356.274C19.2782 355.392 15.8438 349.338 17.3248 353.215C15.3204 350.694 13.1883 345.574 10.5328 340.52V341.734C10.1242 341.095 9.71568 340.456 9.33267 339.699C8.94967 338.944 8.64326 338.216 8.3113 337.435C7.66019 335.862 7.0346 334.223 6.43456 332.52C5.40044 329.077 4.39184 325.558 3.5237 322.283L4.80037 324.023C4.64827 321.493 4.14111 318.998 3.2939 316.613C3.85563 319.403 3.15344 318.059 2.73214 317.61C2.06964 315.404 1.58297 313.149 1.2767 310.865C1.13626 309.587 0.983058 308.307 0.84262 306.925L0.574515 304.915C0.485145 304.25 0.459612 303.635 0.383011 302.918C0.383011 302.918 0.561747 303.16 0.676649 302.918L0 297.352C0.110784 295.583 0.543464 293.845 1.2767 292.232C1.2767 291.746 1.2767 290.951 1.2001 290.286C1.12349 289.621 1.11073 289.289 0.817087 289.722C0.715456 290.176 0.676791 290.642 0.702185 291.107C0.374535 290.289 0.347384 289.381 0.625583 288.546C0.947246 287.574 1.06037 286.545 0.957525 285.526C1.3916 288.342 2.13209 284.822 2.85981 285.257C3.01301 281.149 1.58311 284.669 1.25116 284.118C2.42573 279.165 3.2556 278.641 4.69825 273.88C4.50674 273.662 4.18756 274.507 3.83011 275.441C3.47262 276.375 3.16622 277.412 2.84704 277.553C3.07534 276.869 3.26291 276.173 3.4088 275.467C3.54498 275.054 3.60553 274.621 3.58753 274.187C3.16622 275.147 2.80874 276.145 2.45126 277.13C4.23864 272.075 5.98773 267.34 8.04319 261.773L7.66019 262.131C8.13257 261.005 8.71986 259.943 9.25607 258.842L9.48588 260.416C10.1115 258.548 11.835 257.101 11.6946 255.847L11.2988 256.436C11.618 255.681 11.8988 254.9 12.2435 254.171C12.052 255.028 11.9499 255.924 11.7967 256.73C13.5841 254.235 14.2096 249.576 17.4142 245.558C18.244 245.494 16.9929 247.298 15.78 249.397C14.5671 251.496 13.3798 253.787 13.9032 254.516C14.9374 253.237 16.6992 251.035 16.9163 249.973C16.4439 249.896 15.78 250.882 15.1161 251.88C15.6031 250.773 16.193 249.715 16.878 248.719C17.6184 247.682 18.41 246.633 19.2143 245.647C20.0186 244.662 20.7719 243.715 21.3975 242.845C21.9638 242.112 22.396 241.284 22.6742 240.4L20.1208 242.588C22.5082 239.491 25.4574 238.864 25.6872 237.303L24.7424 240.566C26.7596 237.162 30.5386 233.873 33.0283 231.147C32.7858 230.776 31.7515 231.608 30.8196 232.529C29.8876 233.451 29.0704 234.462 29.1086 234.308L29.9897 232.657C30.997 231.845 32.0989 231.157 33.2708 230.609C33.7816 230.354 34.4325 230.021 37.3561 228.191L37.0624 227.666C39.4244 227.039 43.8037 222.38 42.6416 224.94L40.8544 225.605L41.3779 226.13C42.4503 225.362 43.5227 224.581 44.659 223.903C45.7953 223.225 46.9059 222.47 48.0803 221.843C47.608 222.636 50.9912 220.832 50.3657 221.843L52.8554 220.153C53.6595 220.345 52.5362 221.152 51.2467 221.996C49.9572 222.841 48.5145 223.878 48.5145 224.262C48.8209 224.633 49.9827 223.993 50.5446 223.635C49.3962 224.508 48.0644 225.108 46.6506 225.388C45.2079 225.623 43.8196 226.117 42.5523 226.847L41.4417 228.28L41.033 227.487C40.184 228.223 39.512 229.141 39.0671 230.174C35.62 231.185 33.6154 234.564 29.798 237.853C32.4921 234.539 27.2447 239.133 27.6022 238.455C26.4804 239.788 25.4604 241.204 24.5509 242.691C23.4402 244.342 22.3422 245.916 21.2953 246.364C20.108 247.157 22.572 243.702 20.3761 246.134C19.1633 247.887 18.7292 249.371 19.8654 248.514C16.9692 252.739 14.3465 257.147 12.0137 261.709V260.34C11.5811 260.991 11.2011 261.675 10.8775 262.387C10.604 263.086 10.3821 263.805 10.2136 264.537C9.90996 265.694 9.7597 266.886 9.76676 268.082C9.38372 268.402 9.46032 268.709 9.30712 268.082C6.97077 271.614 8.5794 273.406 6.85587 279.792C7.78786 279.6 8.47728 276.747 8.71986 274.673L9.48588 275.467C10.2391 272.741 11.2477 269.912 12.2052 267.199C13.1628 264.486 14.1969 261.952 15.0395 259.776C14.8991 260.506 14.8097 261.261 14.7076 261.99C15.1636 261.634 15.5418 261.188 15.8185 260.68C16.0953 260.171 16.2647 259.611 16.3162 259.034C16.3162 258.304 16.4439 257.575 18.0525 256.372C19.176 253.812 16.5971 257.818 17.312 255.835C18.5887 254.311 18.4611 257.114 20.2485 254.427C16.9958 259.843 14.3091 265.581 12.2308 271.551C11.191 274.618 10.3383 277.747 9.67738 280.919C9.00071 284.08 8.77091 287.318 8.40068 290.416C8.55388 290.659 8.69431 290.006 8.84751 289.367C8.92686 292.018 8.84158 294.672 8.59218 297.312C8.59218 299.257 8.59218 301.434 8.59218 303.713C8.59218 305.991 8.84751 308.359 8.97519 310.727C9.10287 313.094 9.588 315.396 9.90718 317.558C10.2264 319.724 10.8264 321.693 11.2605 323.407C12.2563 326.787 13.2521 329.013 13.8139 329.103C13.6862 329.808 12.7542 327.978 13.5713 330.525C13.8011 330.704 14.2479 331.265 14.3246 330.525C14.6757 332.318 15.1579 334.084 15.7672 335.81C16.38 337.652 17.312 339.456 18.1547 341.353C18.9973 343.246 20.057 345.062 20.9889 346.956C21.9209 348.852 22.9167 350.694 23.8104 352.55C24.0019 352.218 25.0871 353.689 25.2786 353.585C25.8665 355.23 26.73 356.762 27.832 358.116C28.9045 359.665 29.9769 361.163 30.6279 362.314L30.4108 361.432C32.0706 363.62 33.5899 365.925 35.3902 368.009C35.6327 368.125 34.9306 367.254 34.5476 366.731C35.8241 368.009 35.8241 368.573 35.6582 368.894L38.3011 371.311C41.8343 376.046 45.9187 380.343 50.468 384.11C55.2173 388.218 60.2603 392.39 64.6775 396.909C66.5196 398.199 68.2075 399.696 69.7077 401.373C69.3759 400.951 69.031 400.555 68.6865 400.159C71.0611 402.399 68.6865 400.39 70.6781 402.359C72.0442 403.64 71.3291 402.538 69.5164 400.708C68.4821 399.43 69.2354 400.107 70.0396 400.939C73.3632 404.585 76.3024 408.566 78.8106 412.816C81.0427 416.641 82.7803 420.735 83.9813 425Z" fill="#EFA142"/>
<path d="M183.347 232.773C182.874 233.093 183.793 232.44 184.368 231.724C184.942 231.007 185.466 230.521 184.496 231.468C180.585 235.09 175.912 237.784 170.822 239.351C165.379 241.098 159.664 241.835 153.957 241.527C152.604 241.412 151.748 241.22 150.931 241.143C150.114 241.067 149.322 240.964 148.122 240.721C148.122 240.721 148.046 240.862 148.122 240.951C144.777 240.654 141.471 240.02 138.254 239.057C137.462 238.929 136.798 239.147 138.254 239.454C134.079 238.699 131.525 236.753 129.214 236.267C131.04 237.163 127.159 235.973 129.393 236.958C125.218 235.589 126.138 234.322 123.01 232.914C122.78 232.914 122.537 232.991 123.163 233.273C119.933 231.289 112.362 229.433 112.426 228.153L110.843 228.064C109.854 227.138 108.708 226.397 107.46 225.875C105.736 225.44 107.37 226.323 106.694 226.272C106.17 225.542 101.587 224.147 99.7739 222.842C99.7739 222.432 100.68 222.983 101.778 223.635C102.838 224.4 104.063 224.905 105.353 225.107C105.468 224.979 105.2 224.826 104.791 224.659C109.56 226.607 114.215 228.825 118.733 231.302C122.827 233.528 127.139 235.325 131.602 236.664C132.95 237.481 134.529 237.832 136.096 237.662C134.5 237.048 130.095 235.103 129.712 235.845C128.857 235.346 128.002 234.846 127.159 234.309C126.099 233.964 126.457 233.106 126.074 232.786C127.951 233.618 130.415 233.643 127.976 232.313C133.083 234.143 125.653 233.528 130.223 234.962L131.091 234.603C130.121 234.603 133.938 236.28 135.483 236.549L134.909 236.229C141.647 238.659 148.749 239.918 155.91 239.953C159.721 239.986 163.526 239.617 167.26 238.852C170.85 238.103 174.332 236.908 177.627 235.295C178.596 234.908 179.531 234.441 180.423 233.9C181.431 233.273 182.427 232.428 183.449 231.673C184.47 230.918 185.313 229.919 186.117 229.113C186.921 228.307 187.394 227.603 188.083 226.835C189.002 225.555 186.717 228.55 188.479 226.17C188.74 225.727 189.025 225.3 189.334 224.89C189.577 224.506 189.819 224.122 190.075 223.738C190.33 223.354 190.151 223.584 189.296 225.018C188.739 226.108 188.09 227.149 187.355 228.128C186.189 229.816 184.845 231.373 183.347 232.773Z" fill="#EFA142"/>
<path d="M271.707 163.484C269.996 163.139 266.6 161.577 267.149 160.809C266.651 161.577 266.651 161.577 264.111 160.95C264.455 160.451 262.374 159.504 261.072 158.852C262.607 160.245 264.325 161.42 266.179 162.345C269.447 162.601 273.839 167.247 276.839 167.388C275.269 166.134 274.031 164.368 271.707 163.484Z" fill="white"/>
<path d="M261.889 153.604L261.327 153.706L266.127 155.689C265.068 155.434 261.825 154.026 261.889 153.604Z" fill="white"/>
<path d="M247.22 145.541C247.973 145.286 246.096 143.417 246.531 142.982C245.777 144.108 243.109 140.704 241.424 139.283L240.058 139.424C241.081 140.896 242.336 142.193 243.773 143.263C245.535 144.697 247.603 146.22 249.582 147.576C248.752 146.924 247.986 146.232 247.22 145.541Z" fill="#EFA142"/>
<path d="M244.309 142.354L242.751 141.906C243.849 142.598 246.134 144.287 244.309 142.354Z" fill="white"/>
<path d="M244.654 147.204C247.68 149.502 243.071 145.505 246.288 147.574C245.126 146.974 243.939 146.093 244.654 147.204Z" fill="white"/>
<path d="M234.376 134.906C235.27 135.892 236.291 136.775 237.236 137.709C238.181 138.643 239.215 139.475 240.275 140.268C239.547 139.437 238.896 138.541 238.219 137.709C237.543 137.3 236.943 136.813 236.279 136.352C235.615 135.892 234.989 135.418 234.376 134.906Z" fill="#EFA142"/>
<path d="M235.742 133.128C236.368 133.908 237.159 135.342 235.934 134.484C235.39 133.391 234.674 132.393 233.815 131.528C233.444 131.118 233.074 130.709 232.729 130.248C232.387 129.74 232.112 129.189 231.912 128.61C232.474 129.224 232.985 129.889 233.585 130.44C233.802 130.069 232.908 129.16 232.129 128.2C231.35 127.24 230.75 126.255 231.401 125.948C230.125 124.796 230.125 125.474 230.125 126.05C230.125 126.626 230.125 127.112 228.746 125.334C230.916 128.904 232.474 131.553 234.529 134.433C234.121 133.46 233.776 133.153 233.125 131.873C235.023 134.076 237.108 136.11 239.355 137.952C238.972 136.263 236.853 135.38 235.742 133.128Z" fill="#EFA142"/>
<path d="M229.295 122.812C228.248 120.419 227.138 116.631 226.014 116.157C225.976 116.744 226.01 117.332 226.116 117.91C226.216 118.286 226.38 118.641 226.601 118.96C226.972 119.51 227.431 119.817 227.878 120.329C228.018 121.123 228.951 123.593 228.018 122.889C228.018 122.402 229.423 124.054 229.295 122.812Z" fill="#EFA142"/>
<path d="M226.55 113.072L225.376 111.37L225.695 112.573L225.031 112.816C225.362 113.056 225.655 113.345 225.899 113.674C226.497 114.416 226.901 115.295 227.074 116.233C227.316 114.762 226.512 114.467 226.55 113.072Z" fill="#EFA142"/>
<path d="M221.826 113.111C221.947 112.262 221.947 111.4 221.826 110.552C221.699 109.745 221.597 108.914 221.443 107.787C221.443 108.568 221.507 109.426 221.546 110.347L221.878 112.906C221.956 114.065 222.264 115.197 222.784 116.234L222.567 116.029C222.567 116.029 222.835 116.733 223.256 117.642C223.714 118.662 224.283 119.628 224.954 120.521C224.508 119.748 224.169 118.917 223.946 118.051C223.729 117.117 223.512 116.183 223.308 115.376C223.167 114.724 222.979 114.082 222.746 113.457C222.49 112.958 222.222 112.817 221.826 113.111Z" fill="#EFA142"/>
<path d="M225.899 105.086C225.791 105.742 225.727 106.405 225.708 107.07L225.606 109.079L225.861 108.094C225.816 107.091 225.829 106.087 225.899 105.086Z" fill="#EFA142"/>
<path d="M223.09 110.09C223.167 106.648 222.375 112.023 222.35 108.811C222.269 109.512 222.312 110.223 222.478 110.909C222.549 111.915 222.813 112.897 223.257 113.802C223.333 112.842 222.337 110.449 223.09 110.09Z" fill="#EFA142"/>
<path d="M226.154 102.501C226.027 101.387 226.014 100.261 225.95 99.1221C225.975 100.261 225.975 101.387 226.154 102.501Z" fill="#EFA142"/>
<path d="M228.108 94.5532L227.839 93.7981C229.116 90.8546 230.048 86.58 231.95 84.8395C231.21 85.1081 231.465 83.1372 230.137 85.6586C230.227 86.1706 229.818 87.1048 230.227 87.092C229.691 88.1797 229.397 87.7957 228.95 88.487C228.701 89.6842 228.39 90.8673 228.018 92.0319C227.621 93.0762 227.396 94.1786 227.354 95.2954C227.395 94.7545 227.556 94.2297 227.827 93.7596C227.815 94.971 227.475 96.1567 226.844 97.1897C226.422 97.9064 226.141 98.4693 226.729 99.3014C226.681 98.942 226.703 98.5772 226.792 98.2262C226.927 97.7913 227.084 97.364 227.265 96.9465C227.642 96.1862 227.925 95.3824 228.108 94.5532Z" fill="#EFA142"/>
<path d="M224.916 93.9645L224.022 96.8057C223.626 95.7562 224.839 93.2478 224.495 92.6592C224.035 92.6592 223.116 95.5769 223.141 94.4381C224.495 95.1675 222.209 98.4565 224.227 97.3047C223.933 99.199 223.703 99.4676 223.384 99.7492C223.065 100.031 222.72 100.325 222.528 102.386L223.243 103.666C223.218 102.019 223.424 100.378 223.856 98.7893C224.099 97.4328 224.584 96.204 224.916 93.9645Z" fill="#EFA142"/>
<path d="M229.167 83.4707L230.176 82.3828L229.269 82.7922C230.461 80.3361 232.098 78.1229 234.095 76.2654C235.637 74.9204 236.967 73.3499 238.04 71.6069C239.994 67.1276 243.594 64.1838 246.441 60.2166C247.539 58.0537 244.819 61.8674 244.449 61.9059C244.13 60.7925 246.249 60.3443 246.339 59.0136C246.186 58.6935 245.279 59.5765 244.181 60.7156C243.083 61.8547 241.896 63.2751 241.092 64.0176C240.083 65.5661 240.275 65.6684 240.275 66.3597C239.674 66.5132 238.487 67.9594 237.9 68.1386C237.147 69.5833 236.249 70.9471 235.219 72.2082C234.174 73.4491 233.342 74.8545 232.755 76.3677C231.644 77.1099 234.108 73.8082 233.38 74.8958L232.359 76.7005L232.55 76.5597C231.899 78.2172 231.105 79.8146 230.176 81.3333C229.193 82.9587 228.274 84.4945 227.623 85.2496C228.427 83.9697 229.308 83.3299 228.772 84.9423C228.363 85.2624 227.929 85.5824 227.495 85.9279L227.125 89.7674C227.378 88.4126 227.866 87.113 228.567 85.9279C229.244 84.8272 229.64 83.9952 229.167 83.4707Z" fill="#EFA142"/>
<path d="M226.321 86.6823C225.299 88.6789 225.605 88.6532 225.899 88.6789C226.193 88.7043 226.397 88.6789 225.491 90.9953C225.963 89.3572 226.652 87.8087 227.24 86.209L226.321 86.6823Z" fill="#EFA142"/>
<path d="M237.925 69.2903L239.483 67.7803C238.091 68.2281 237.211 71.6963 237.925 69.2903Z" fill="white"/>
<path d="M242.496 62.9163L242.445 64.2728L243.288 62.417L242.496 62.9163Z" fill="white"/>
<path d="M247.552 57.8233C248.254 56.3642 246.837 57.6441 245.777 59.1029C246.824 57.8618 247.603 57.3882 247.552 57.8233Z" fill="#EFA142"/>
<path d="M255.736 49.3375C253.591 52.2301 257.74 46.8548 256.655 49.3375C256.719 48.7361 257.51 47.0595 255.736 49.3375Z" fill="white"/>
<path d="M263.421 40.4688C262.809 41.646 262.451 42.043 262.247 42.1196C262.589 41.5359 262.982 40.9834 263.421 40.4688Z" fill="#EFA142"/>
<path d="M236.189 75.8301C235.998 76.1877 235.781 76.5708 235.563 76.9027C235.742 76.5453 235.946 76.2004 236.189 75.8301Z" fill="#EFA142"/>
<path d="M236.598 75.1514C236.445 75.3812 236.305 75.6111 236.151 75.8282C236.317 75.5344 236.458 75.3431 236.598 75.1514Z" fill="#EFA142"/>
<path d="M253.22 147.857C253.833 148.177 254.28 148.458 254.65 148.687L253.233 147.87L253.22 147.857Z" fill="#EFA142"/>
<path d="M254.063 150.187C251.191 149.201 252.276 147.141 248.139 144.824C249.773 145.835 251.484 146.859 253.246 147.87C254.932 150.276 251.127 147.205 254.063 150.187Z" fill="#EFA142"/>
<path d="M225.837 121.931L225.733 121.776C225.592 121.506 225.682 121.609 225.837 121.931Z" fill="#EFA142"/>
<path d="M282.636 238.558V238.724C281.793 238.966 280.925 239.145 280.082 239.337C280.938 239.094 281.793 238.851 282.636 238.558Z" fill="white"/>
<path d="M283.083 238.724C284.538 238.366 285.968 237.892 287.424 237.444C279.137 240.712 270.427 242.772 261.557 243.562L262.4 243.319C262.196 243.216 267.66 242.653 272.997 241.553C276.442 240.941 279.82 239.994 283.083 238.724Z" fill="white"/>
<path d="M284.193 238.071C286.325 236.471 288.304 236.791 290.895 234.846C289.467 236.117 287.795 237.079 285.981 237.674C285.381 237.789 284.806 237.956 284.193 238.071Z" fill="white"/>
<path d="M293.372 229.112L293.858 228.754L293.424 229.214L293.372 229.112Z" fill="#EFA142"/>
<path d="M293.425 229.215L293.555 229.472C293.13 229.614 293.182 229.472 293.425 229.215Z" fill="#EFA142"/>
<path d="M293.858 228.755C294.216 228.385 294.549 227.992 294.852 227.577L294.393 227.884L295.364 226.911C295.584 226.636 295.852 226.402 296.156 226.22C295.069 227.18 295.11 227.295 295.338 227.667C296.003 227.206 296.616 226.643 297.191 226.131C297.344 226.656 296.934 227.001 296.295 227.411C295.451 227.794 294.635 228.244 293.858 228.755Z" fill="#EFA142"/>
<path d="M301.926 221.127C301.836 221.741 300.229 223.52 301.35 222.586C301.148 222.991 300.891 223.366 300.584 223.699C301.466 222.317 300.024 223.098 301.926 221.127Z" fill="#EFA142"/>
<path d="M300.587 223.699C300.466 223.901 300.321 224.086 300.151 224.248C300.304 224.07 300.446 223.878 300.587 223.699Z" fill="#EFA142"/>
<path d="M304.877 217.26L305.207 216.417C305.106 216.66 305.042 216.889 304.964 217.119L304.877 217.26Z" fill="#EFA142"/>
<path d="M231.082 243.856C235.099 244.366 239.138 244.674 243.185 244.778C243.058 244.598 245.267 244.778 245.56 244.573C242.879 244.573 247.922 244.573 253.093 244.291C258.263 244.01 263.536 243.165 261.391 243.344L260.115 243.651L261.391 243.114C263.999 243.028 266.596 242.724 269.154 242.205C265.667 242.879 262.147 243.366 258.608 243.664C253.22 244.214 247.845 244.329 248.267 244.355C247.271 244.24 254.752 244.022 262.476 242.883C266.307 242.333 270.277 241.604 273.264 240.9C275.029 240.522 276.766 240.022 278.461 239.402L278.895 239.633C281.912 238.352 284.828 236.842 287.615 235.115L288.483 235.23C287.611 235.571 286.759 235.96 285.929 236.395C285.125 236.869 284.294 237.296 283.44 237.675C286.067 236.76 288.627 235.661 291.101 234.385C290.693 233.874 288.547 235.448 291.919 233.106C292.505 232.939 292.289 233.336 292.312 233.554C292.338 233.771 292.644 233.81 294.176 232.76C295.39 232.164 296.445 231.287 297.255 230.2C297.917 229.225 298.697 228.335 299.579 227.551L297.471 229.023C297.98 228.549 298.746 227.859 299.475 227.218C300.079 226.569 300.767 226.001 301.518 225.529C300.917 226.054 300.061 227.18 299.246 228.089C298.428 228.997 297.853 229.868 298.11 230.111C298.683 229.497 299.755 228.716 300.738 227.846C301.582 227.131 302.371 226.357 303.102 225.529C303.102 225.862 302.987 226.22 302.897 226.553C303.501 226.158 304.01 225.628 304.377 225.004C304.582 224.723 304.788 224.428 305.042 224.121C305.302 223.746 305.606 223.402 305.947 223.098C306.791 221.344 304.672 223.609 305.08 222.598C305.672 222.076 306.175 221.462 306.574 220.781C307.167 219.961 307.6 219.036 307.852 218.055C307.187 218.247 306.739 219.194 306.216 220.346C305.97 220.952 305.637 221.521 305.233 222.035C304.854 222.55 304.377 222.985 303.828 223.315C304.504 222.406 305.247 221.549 305.872 220.602C305.872 219.322 305.322 220.602 304.481 221.792C303.637 222.982 302.706 224.352 302.718 223.609C302.805 223.293 302.929 222.988 303.088 222.701C303.23 222.421 303.391 222.151 303.574 221.895C303.964 221.387 304.392 220.908 304.851 220.461C305.262 219.984 305.62 219.465 305.924 218.913C306.065 218.642 306.172 218.354 306.242 218.055C306.305 217.734 306.305 217.404 306.242 217.082C305.898 217.748 304.964 219.053 304.351 220.167C303.738 221.28 302.897 222.01 302.897 221.638C303.475 221.097 303.894 220.406 304.108 219.642C304.314 218.849 304.556 218.004 304.926 216.955C305.4 216.174 305.961 215.419 306.406 214.612C306.331 213.332 306.14 214.292 305.603 215.035C306.701 212.775 307.271 210.292 307.262 207.778C307.262 204.808 307.071 201.842 306.69 198.896C305.603 195.633 306.036 198.627 305.143 197.284C305.348 195.326 303.574 192.677 302.654 191.051C302.464 190.514 301.238 190.027 301.212 190.655C302.094 191.934 302.961 193.214 303.764 194.609C303.256 194.609 302.935 195.441 303.548 196.913C304.071 196.132 304.481 197.732 304.71 199.472C304.941 201.213 305.106 203.12 305.987 203.184H305.207C305.435 204.098 305.606 205.026 305.718 205.961L305.898 207.369V208.777L306.013 208.623C305.898 208.623 306.013 209.8 305.794 211.387C305.637 213.111 305.16 214.791 304.392 216.34C304.392 215.854 305.094 214.459 305.221 213.422C305.348 212.386 305.438 211.874 304.672 213.217C304.799 212.078 305.143 210.568 305.348 208.777C305.348 208.328 305.438 207.868 305.487 207.394C305.539 206.921 305.487 206.422 305.487 205.91C305.467 204.88 305.337 203.855 305.106 202.851L304.698 203.708C304.059 201.609 303.548 199.178 302.692 196.67C301.929 194.139 300.813 191.731 299.373 189.515L300.804 190.424C300.151 188.748 299.385 186.38 297.763 185.407C299.157 187.161 298.096 186.495 297.587 186.38C295.506 184.243 292.991 180.749 289.62 178.343C289.62 178.343 289.886 178.343 289.823 178.138C288.623 177.319 287.359 176.551 286.095 175.809C284.998 174.886 284.088 173.761 283.414 172.494C282.712 172.136 281.065 171.073 281.423 171.88C281.702 172.129 282.011 172.344 282.342 172.519C279.942 172.033 281.167 171.419 278.423 170.382C280.708 170.907 278.422 169.102 279.035 168.578C275.933 167.119 278.052 169.589 277.503 169.678C274.197 167.195 274.043 166.364 270.417 164.188C269.984 164.495 272.881 165.929 272.971 166.568C272.215 165.973 271.346 165.538 270.417 165.289L272.486 166.876C268.821 164.169 264.864 161.885 260.689 160.067L260.906 160.477L258.187 158.954L259.604 158.698C258.021 158.096 256.834 156.484 255.697 156.663L256.208 157.034L254.216 156.215L256.553 156.535C254.433 154.871 250.169 154.551 246.505 151.825C246.505 151.032 248.101 152.094 249.99 153.105C251.88 154.116 253.948 155.153 254.586 154.602C253.402 153.475 252.016 152.58 250.501 151.966C250.424 152.414 251.305 153.028 252.212 153.578C248.382 152.298 244.36 147.768 241.577 147.243C242.266 147.986 242.956 148.754 243.658 149.483C240.734 147.486 240.083 144.722 238.551 144.658L241.641 145.234C238.423 143.622 235.181 140.371 232.538 138.195C232.168 138.464 233.01 139.373 233.904 140.192C234.798 141.011 235.794 141.676 235.64 141.663L234.032 140.985C233.243 140.072 232.562 139.072 232.002 138.003C231.301 136.677 230.521 135.395 229.665 134.164L229.155 134.471C228.531 133.071 227.695 131.776 226.678 130.632C225.835 129.352 225.401 128.635 226.576 129.198C226.767 129.761 226.946 130.363 227.176 130.913L227.687 130.401C226.971 129.39 226.295 128.328 225.618 127.278C224.942 126.229 224.342 125.103 223.805 123.938C224.559 124.412 223.078 121.084 224.086 121.75C223.575 120.969 223.116 120.137 222.644 119.318C222.925 118.576 223.588 119.702 224.278 120.982C224.967 122.261 225.861 123.631 226.257 123.605C226.64 123.337 226.116 122.21 225.835 121.673C226.248 122.253 226.562 122.897 226.767 123.58C226.982 124.164 227.136 124.769 227.227 125.384C227.4 126.735 227.833 128.039 228.503 129.224L229.806 130.567L229.027 130.99C229.694 131.803 230.581 132.407 231.581 132.73C232.5 135.994 235.806 137.619 238.972 140.921C237.402 139.795 237.696 140.358 238.321 141.203C238.947 142.047 239.917 143.097 239.598 142.956C240.868 143.922 242.218 144.778 243.632 145.515C245.203 146.424 246.684 147.333 247.092 148.318C247.845 149.393 244.615 147.32 246.888 149.214C248.535 150.212 249.876 150.494 249.11 149.496C252.748 151.659 256.936 154.359 260.932 156.535H259.655C261.59 158.02 263.915 158.909 266.345 159.094C266.575 159.491 266.856 159.44 266.345 159.555C269.026 162.115 271.005 160.63 276.022 163.727C276.15 162.818 273.89 161.437 272.052 160.912L272.933 160.297C268.569 157.795 264.058 155.56 259.425 153.604L261.43 153.924C258.966 151.019 258.557 153.758 256.412 150.763C254.089 149.777 257.689 152.132 255.876 151.518C254.51 150.353 257.153 150.238 254.599 148.728C264.175 154.116 275.601 159.478 285.483 165.89C285.764 165.89 285.291 165.468 284.806 165.071C286.823 165.647 294.445 171.189 300.061 178.253C302.559 181.464 304.767 184.89 306.664 188.492C308.207 191.422 309.216 193.508 309.803 193.611C309.69 194.302 308.745 192.574 309.574 194.98C309.803 195.147 310.199 195.71 310.314 194.98C310.971 198.603 311.419 202.261 311.656 205.935C311.864 209.974 311.026 213.999 309.23 217.62C309.612 217.62 309.089 219.258 309.23 219.386C308.713 219.988 308.242 220.63 307.826 221.306C307.404 222.048 306.906 222.803 306.395 223.545C305.554 224.933 304.51 226.185 303.293 227.257C303.574 227.155 303.828 227.014 304.097 226.886C303.215 227.884 302.221 228.767 301.264 229.676C300.304 230.584 299.272 231.403 298.159 232.12C298.032 232.338 298.94 231.775 299.437 231.391C298.159 232.555 297.599 232.427 297.304 232.312C296.5 233.179 295.647 234 294.751 234.769C289.733 237.124 284.568 239.154 279.291 240.848C273.679 242.547 267.892 243.595 262.042 243.971C260.072 244.507 258.045 244.807 256.004 244.867H257.434C254.51 245.225 257.255 244.739 254.752 244.97C253.067 245.162 254.267 245.379 256.578 245.136C258.033 245.136 257.153 245.302 256.118 245.392C247.746 245.524 239.376 245.011 231.082 243.856Z" fill="#EFA142"/>
<path d="M275.371 10.4703C275.244 11.4685 275.652 6.47726 275.371 8.89612C274.898 13.6511 273.821 18.326 272.167 22.8076C270.458 27.6526 268.177 32.2755 265.375 36.5784L262.208 40.8273C262.217 40.8475 262.229 40.8657 262.244 40.8813C262.26 40.8967 262.278 40.9088 262.299 40.9172C262.318 40.9256 262.34 40.9296 262.362 40.9296C262.384 40.9296 262.405 40.9253 262.425 40.9169C260.865 43.4698 259.16 45.931 257.319 48.2885C256.987 48.9156 256.974 49.5684 257.689 48.4038C255.774 51.7058 253.297 53.2413 252.263 55.1229C253.54 53.843 251.484 56.8249 252.952 55.1995C250.667 58.4119 249.697 57.1831 247.679 59.538C247.679 59.7557 247.679 59.9861 248.05 59.538C246.534 61.0983 245.186 62.8142 244.028 64.6573C242.752 66.4747 241.756 67.9975 241.143 67.8055L240.721 69.1366C239.682 69.8131 238.781 70.6816 238.066 71.6962C237.351 73.1553 238.475 71.8881 238.321 72.4898C237.53 72.7968 235.474 76.5724 233.904 77.9546C233.151 77.6346 236.56 75.3948 236.994 73.4239C236.891 73.2961 236.7 73.5135 236.47 73.8463C239.068 69.9797 241.999 66.3484 245.228 62.9935C248.138 59.9627 250.81 56.7107 253.221 53.2671C254.317 52.3575 255.066 51.0961 255.34 49.6965C254.293 50.8226 251.306 54.0222 251.931 54.6493L249.901 56.3386C249.327 57.1577 248.624 56.556 248.216 56.7992C249.492 55.4042 250.093 53.2032 248.216 54.9564C251.203 51.1169 248.739 57.4008 251.254 53.843L251.14 52.947C250.91 53.8045 253.438 51.0145 254.127 49.7604L253.68 50.157C257.773 45.1218 261.522 39.8157 264.902 34.2747C268.456 28.4859 271.249 22.2616 273.214 15.7559C274.58 12.8379 274.988 6.51566 275.141 3.58489C275.141 2.17711 275.141 5.59422 275.077 2.89382C275.034 2.4213 275.034 1.94573 275.077 1.47322C275.077 1.06368 275.077 0.654146 275.077 0.193414C275.077 -0.267317 275.077 0.052635 275.167 1.614C275.497 4.55415 275.566 7.51796 275.371 10.4703Z" fill="#EFA142"/>
</g>
<defs>
<clipPath id="clip0_729_5918">
<rect width="370" height="425" fill="white"/>
</clipPath>
</defs>
</svg>
